<svg xmlns="http://www.w3.org/2000/svg" width="54.853" height="62.472" viewBox="0 0 54.853 62.472">
  <g id="Groupe_431" data-name="Groupe 431" transform="translate(4426.005 9729.844)">
    <path id="Tracé_669" data-name="Tracé 669" d="M27.383,3.071c-.368-.03-.738-.049-1.111-.06C26.021,3,25.774,3,25.523,3q-.335,0-.67.008C6.495,3.474-3.453,24.787,7.668,39.4L23.7,60.472a2.444,2.444,0,0,0,2.568.885s0,0,.005,0a2.433,2.433,0,0,0,1.326-.893L43.525,39.314C54.317,24.983,44.974,4.391,27.383,3.071Zm.482,30.855a11.367,11.367,0,0,1-2.255.226,11.143,11.143,0,1,1,2.255-.226Z" transform="translate(-4427 -9730.844)" fill="none" stroke="#0e377b" stroke-linecap="round" stroke-linejoin="round" stroke-width="4"/>
    <path id="Tracé_670" data-name="Tracé 670" d="M111.443,39.342,95.518,60.217a2.432,2.432,0,0,1-1.947.975c-.005,0-3.584.136-5.1.191a2.433,2.433,0,0,0,1.326-.893l15.924-21.147C116.516,25.011,107.173,4.419,89.582,3.1c2.045-.03,4.463-.065,4.607-.06,18.3.52,28.271,21.673,17.253,36.3" transform="translate(-4489.199 -9730.871)" fill="#0e377b" stroke="#0e377b" stroke-width="4"/>
    <path id="Tracé_671" data-name="Tracé 671" d="M111.443,39.342,95.518,60.217a2.432,2.432,0,0,1-1.947.975c-.005,0-3.584.136-5.1.191a2.433,2.433,0,0,0,1.326-.893l15.924-21.147C116.516,25.011,107.173,4.419,89.582,3.1c2.045-.03,4.463-.065,4.607-.06C112.494,3.559,122.46,24.711,111.443,39.342Z" transform="translate(-4489.199 -9730.871)" fill="none" stroke="#0e377b" stroke-linecap="round" stroke-linejoin="round" stroke-width="4"/>
    <path id="Tracé_680" data-name="Tracé 680" d="M-4401.03-9667.431l6.1-.336-2.921-1.769-3.854.48Z" fill="#0e377b"/>
    <path id="Tracé_681" data-name="Tracé 681" d="M-4394.948-9729.821h-7.466s-.429,1.058-.207,1.087,8.923,0,8.923,0Z" fill="#0e377b"/>
  </g>
</svg>
