<svg xmlns="http://www.w3.org/2000/svg" width="105.658" height="128.066" viewBox="0 0 105.658 128.066">
  <g id="Groupe_438" data-name="Groupe 438" transform="translate(-1050.198 -351.188)">
    <g id="Groupe_235" data-name="Groupe 235" transform="translate(-38 41.209)">
      <path id="Tracé_464" data-name="Tracé 464" d="M340.728,239.955l.093,58.795-23.7-31.8-.092-58.795Z" transform="translate(773.969 136.581)" fill="none" stroke="#53b7b3" stroke-linecap="round" stroke-linejoin="round" stroke-width="4"/>
      <path id="Tracé_465" data-name="Tracé 465" d="M410.344,298.633l23.6-31.875-.092-58.795-23.6,31.875" transform="translate(757.205 136.616)" fill="none" stroke="#53b7b3" stroke-linecap="round" stroke-linejoin="round" stroke-width="4"/>
      <path id="Tracé_466" data-name="Tracé 466" d="M346.016,305.7l52.76-.083-.092-58.795-52.761.083" transform="translate(768.772 129.628)" fill="none" stroke="#53b7b3" stroke-linecap="round" stroke-linejoin="round" stroke-width="4"/>
      <line id="Ligne_55" data-name="Ligne 55" x1="23.701" y1="31.801" transform="translate(1167.357 312.778)" fill="none" stroke="#53b7b3" stroke-linecap="round" stroke-linejoin="round" stroke-width="4"/>
      <line id="Ligne_56" data-name="Ligne 56" y1="31.875" x2="23.601" transform="translate(1090.996 312.861)" fill="none" stroke="#53b7b3" stroke-linecap="round" stroke-linejoin="round" stroke-width="4"/>
      <line id="Ligne_57" data-name="Ligne 57" y1="0.083" x2="52.76" transform="translate(1114.597 312.778)" fill="none" stroke="#53b7b3" stroke-linecap="round" stroke-linejoin="round" stroke-width="4"/>
    </g>
    <path id="Tracé_550" data-name="Tracé 550" d="M-9395.34-12854.014h-52.6l-24.1,31.75,24.1,31.706h55.016l20.734-31.706Z" transform="translate(10524 13208)" fill="#53b7b3"/>
  </g>
</svg>
