<svg xmlns="http://www.w3.org/2000/svg" width="97.289" height="89.346" viewBox="0 0 97.289 89.346">
  <g id="Groupe_441" data-name="Groupe 441" transform="translate(14462.801 7217.98) rotate(-30)">
    <g id="Groupe_233" data-name="Groupe 233" transform="translate(-8934.384 -13446.257)">
      <path id="Tracé_462" data-name="Tracé 462" d="M77.592,599.081c-1.471,7.111-19.331,9.426-39.89,5.172S1.667,590.786,3.138,583.676s19.331-9.426,39.891-5.172S79.063,591.97,77.592,599.081Z" transform="translate(-2.475 -576.374)" fill="none" stroke="#ebb74f" stroke-linecap="round" stroke-linejoin="round" stroke-width="4"/>
      <path id="Tracé_463" data-name="Tracé 463" d="M77.4,603.618c-4.385,21.193-24.628,34.919-45.215,30.66S-1.541,609.386,2.844,588.193" transform="translate(-2 -581.766)" fill="none" stroke="#ebb74f" stroke-linecap="round" stroke-linejoin="round" stroke-width="4"/>
    </g>
    <g id="Groupe_252" data-name="Groupe 252" transform="translate(-8934.224 -13445.989)">
      <path id="Tracé_553" data-name="Tracé 553" d="M-8894.229-13444.154s-33.26-5.432-39.17,3.131,24.944,23.777,40.868,24.645,38.591,1.469,31.912-11.1S-8894.229-13444.154-8894.229-13444.154Z" transform="translate(8934.142 13445.853)" fill="#ebb74f"/>
    </g>
  </g>
</svg>
