<?xml version="1.0" encoding="utf-8"?>
<!-- Generator: Adobe Illustrator 25.4.1, SVG Export Plug-In . SVG Version: 6.00 Build 0)  -->
<svg version="1.1" id="Calque_1" xmlns="http://www.w3.org/2000/svg" xmlns:xlink="http://www.w3.org/1999/xlink" x="0px" y="0px"
	 viewBox="0 0 399.5 255" style="enable-background:new 0 0 399.5 255;" xml:space="preserve">
<style type="text/css">
	.st0{fill:#FFFFFF;}
	.st1{fill-rule:evenodd;clip-rule:evenodd;fill:#FFFFFF;}
</style>
<g>
	<g>
		<path class="st0" d="M154.3,85.8c-8.5,0-13.4-5.8-13.4-14s5.1-14,13-14c5.6,0,10.8,2.7,11.8,9.4h-6.5c-0.6-2.1-2.3-3.5-5.2-3.5
			c-4,0-6.4,3.5-6.4,8.3c0,5,2.6,8.1,6.7,8.1c2.8,0,4.7-1.4,5.4-3.6h6.5C165.1,82.6,160.3,85.8,154.3,85.8z"/>
		<path class="st0" d="M191.6,58.2v27.3h-6.2V74.4h-9.8v11.1h-6.2V58.2h6.2v10.7h9.8V58.2H191.6z"/>
		<path class="st0" d="M219.4,73.8c0,8.5-5.1,12-11.4,12c-6.3,0-11.5-3.5-11.5-12V58.2h6.5v16c0,3.4,1.8,5.8,5.1,5.8
			s4.9-2.4,4.9-5.8v-16h6.5v15.6H219.4z"/>
		<path class="st0" d="M151.1,122.6c-6.5,0-10.2-4-10.2-9.6h6c0,2.6,1.4,4.3,4.4,4.3c1.8,0,3.2-0.9,3.2-2.6c0-1.9-1.6-2.7-5-4
			c-4.2-1.6-7.8-3.7-7.8-8.2c0-5.1,4-8,9-8c6,0,9.4,3.9,9.4,8.4h-5.6c-0.2-1.8-1.4-3.2-3.7-3.2c-1.7,0-2.9,0.9-2.9,2.3
			c0,1.5,1.2,2.4,4.4,3.7c5,2,8.5,4,8.5,9C160.8,119.9,156.7,122.6,151.1,122.6z"/>
		<path class="st0" d="M182.2,117.3v4.8h-1.1c-1.9,0-3.8-0.5-4.5-2.5c-1.5,1.8-3.8,2.9-6.9,2.9c-4.3,0-7-2.1-7-5.8
			c0-4.2,3.4-6.1,8.6-6.5l3.6-0.3v-0.3c0-1.9-1.2-2.9-2.8-2.9c-2.1,0-2.9,1.6-3,2.7h-5.6c0.3-4.2,3.5-7.1,8.5-7.1
			c4.7,0,8.5,2.6,8.5,8.2v5.3C180.7,116.9,181.1,117.3,182.2,117.3z M175,114l-2,0.2c-3,0.2-4.2,1.1-4.2,2.3c0,0.9,0.8,1.5,2,1.5
			C172.8,117.9,174.9,116.4,175,114z"/>
		<path class="st0" d="M184,97.1c0-2.1,1.7-3.7,3.7-3.7s3.6,1.6,3.6,3.7c0,1.9-1.6,3.6-3.6,3.6S184,99,184,97.1z M190.6,122.2h-5.9
			v-19.5h5.9V122.2z"/>
		<path class="st0" d="M214.6,111.5v10.7h-6.2v-9.7c0-3.2-1.6-4.7-3.8-4.7c-1.9,0-3.8,1.3-3.8,4.6v9.8h-6.2v-19.5h4.9l0.7,2.3h0.5
			c0.9-1.1,2.3-2.7,6-2.7C211.2,102.3,214.6,105.5,214.6,111.5z"/>
		<path class="st0" d="M226.1,122.6c-3.8,0-6.5-1.6-6.5-6.8v-8.3h-3.9V103h1.3c2,0,3.1-1.1,3.1-2.7v-2.6h5.5v4.9h4.9v4.8h-4.9v7.7
			c0,1.5,0.7,2.2,1.7,2.2c0.8,0,1.5-0.4,1.9-0.6l1.1,4.6C229.4,122,228,122.6,226.1,122.6z"/>
		<path class="st0" d="M251.2,115.7c-0.9,4.4-4.9,6.8-9.5,6.8c-6.2,0-10.2-4.2-10.2-10.1c0-6.1,4.4-10.1,9.8-10.1
			c5.2,0,10.4,3.1,9.7,11.8h-13.7c0.4,2.3,1.8,3.6,4.5,3.6c1.8,0,3.2-0.7,3.8-2C245.6,115.7,251.2,115.7,251.2,115.7z M237.5,109.9
			h8.1c-0.1-1.5-1.6-3-3.9-3C239.7,106.9,238.2,108,237.5,109.9z"/>
		<path class="st0" d="M267.8,107.6v4.9h-14v-4.9H267.8z"/>
		<path class="st0" d="M277.9,116.8c1.7,0,2.7-1.2,2.7-3.5V94.9h6.1v18.6c0,5.7-3.5,9-8.6,9c-5.8,0-9-3.6-9-8.9h6
			C275.3,115.5,276,116.8,277.9,116.8z"/>
		<path class="st0" d="M289.8,113.4v-10.7h6.2v9.7c0,3.2,1.6,4.7,3.7,4.7c1.9,0,3.7-1.3,3.7-4.6v-9.8h6.2v19.5h-4.9l-0.7-2.3h-0.5
			c-0.9,1.1-2.3,2.7-5.9,2.7C293,122.6,289.8,119.4,289.8,113.4z"/>
		<path class="st0" d="M321,122.6c-5.2,0-8.5-2.6-8.8-7.1h5.7c0.2,1.9,1.7,2.6,3.2,2.6c1.1,0,2.2-0.4,2.2-1.4c0-1.1-1.2-1.7-3.5-2.3
			c-2.9-0.7-7-1.9-7-6c0-3.7,3.3-6.1,7.9-6.1c4.7,0,7.7,2.6,8,6.4h-5.5c-0.2-1.2-1.2-1.9-2.7-1.9c-1,0-1.8,0.4-1.8,1.3
			s0.9,1.4,3.6,2.1c4,1.1,6.8,2.8,6.8,6.4C329.1,120.6,325.7,122.6,321,122.6z"/>
		<path class="st0" d="M340.2,122.6c-3.8,0-6.5-1.6-6.5-6.8v-8.3h-3.9V103h1.3c2,0,3.1-1.1,3.1-2.7v-2.6h5.5v4.9h4.9v4.8h-4.9v7.7
			c0,1.5,0.7,2.2,1.7,2.2c0.8,0,1.5-0.4,1.9-0.6l1.1,4.6C343.5,122,342,122.6,340.2,122.6z"/>
		<path class="st0" d="M346.5,97.1c0-2.1,1.7-3.7,3.7-3.7s3.6,1.6,3.6,3.7c0,1.9-1.6,3.6-3.6,3.6C348.3,100.7,346.5,99,346.5,97.1z
			 M353.2,122.2h-5.9v-19.5h5.9V122.2z"/>
		<path class="st0" d="M377.1,111.5v10.7h-6.2v-9.7c0-3.2-1.6-4.7-3.8-4.7c-1.9,0-3.8,1.3-3.8,4.6v9.8h-6.2v-19.5h4.9l0.7,2.3h0.5
			c0.9-1.1,2.3-2.7,6-2.7C373.8,102.3,377.1,105.5,377.1,111.5z"/>
		<path class="st0" d="M399.5,115.7c-0.9,4.4-4.9,6.8-9.5,6.8c-6.2,0-10.2-4.2-10.2-10.1c0-6.1,4.4-10.1,9.8-10.1
			c5.2,0,10.4,3.1,9.7,11.8h-13.7c0.4,2.3,1.8,3.6,4.5,3.6c1.8,0,3.2-0.7,3.8-2C393.9,115.7,399.5,115.7,399.5,115.7z M385.8,109.9
			h8.1c-0.1-1.5-1.6-3-3.9-3C387.9,106.9,386.4,108,385.8,109.9z"/>
		<path class="st0" d="M151.4,147.4v2.3h-10.3v-15.4h2.5v13.1L151.4,147.4L151.4,147.4z"/>
		<path class="st0" d="M163,144.7h-8.2c0.2,2,1.2,3.3,3.3,3.3c1.2,0,2.3-0.5,2.7-1.6h2.2c-0.6,2.3-2.6,3.5-4.9,3.5
			c-3.4,0-5.5-2.3-5.5-5.8c0-3.3,2.3-5.7,5.3-5.7C160.8,138.5,163.3,140.3,163,144.7z M160.9,143c0-1.5-1.1-2.8-2.9-2.8
			c-1.6,0-2.8,1.1-3.1,2.8H160.9z"/>
		<path class="st0" d="M176.1,149.9c-3.6,0-5.6-2.5-5.6-5.7c0-3.3,2.4-5.7,5.5-5.7c2.7,0,4.8,1.7,5.1,4.3h-2.3
			c-0.2-1.1-1.1-2.2-2.9-2.2c-1.9,0-3.2,1.6-3.2,3.7c0,2.2,1.1,3.7,3.3,3.7c1.5,0,2.5-0.9,2.8-2h2.3
			C180.8,148.2,178.8,149.9,176.1,149.9z"/>
		<path class="st0" d="M193.1,144.7h-8.2c0.2,2,1.2,3.3,3.3,3.3c1.2,0,2.3-0.5,2.7-1.6h2.2c-0.6,2.3-2.6,3.5-4.9,3.5
			c-3.4,0-5.5-2.3-5.5-5.8c0-3.3,2.3-5.7,5.3-5.7C190.9,138.5,193.3,140.3,193.1,144.7z M190.9,143c0-1.5-1.1-2.8-2.9-2.8
			c-1.6,0-2.8,1.1-3.1,2.8H190.9z"/>
		<path class="st0" d="M205.1,143.2v6.5h-2.4v-6.1c0-2.1-1.1-3.1-2.6-3.1c-1.3,0-2.6,0.9-2.6,3v6.1h-2.4v-11h1.8l0.3,1.4h0.2
			c0.5-0.7,1.3-1.6,3.4-1.6C203.3,138.5,205.1,140.1,205.1,143.2z"/>
		<path class="st0" d="M211.6,149.9c-1.6,0-2.9-0.7-2.9-3.1v-6.2h-2.2v-1.7h0.7c1.2,0,1.7-0.5,1.7-1.5V136h2v2.8h2.7v1.8h-2.7v6
			c0,1,0.4,1.4,1.1,1.4c0.4,0,0.8-0.2,1-0.3l0.5,1.8C213.1,149.6,212.5,149.9,211.6,149.9z"/>
		<path class="st0" d="M221.7,138.5v2.3c-0.2,0-0.6-0.1-1-0.1c-1.5,0-3,1.1-3,3.7v5.4h-2.3v-11h1.8l0.4,1.5h0.2
			c0.6-0.9,1.5-1.8,3.3-1.8L221.7,138.5L221.7,138.5z"/>
		<path class="st0" d="M233.2,144.7H225c0.2,2,1.2,3.3,3.3,3.3c1.2,0,2.3-0.5,2.7-1.6h2.2c-0.6,2.3-2.6,3.5-4.9,3.5
			c-3.4,0-5.5-2.3-5.5-5.8c0-3.3,2.3-5.7,5.3-5.7C231,138.5,233.4,140.3,233.2,144.7z M231,143c0-1.5-1.1-2.8-2.9-2.8
			c-1.6,0-2.8,1.1-3.1,2.8H231z"/>
		<path class="st0" d="M251.3,143.1v6.6H249v-5.8c0-2.1-1-3.3-2.8-3.3c-1.3,0-2.6,1-2.6,3v6.1h-2.4V134h2.4v5.9h0.2
			c0.5-0.6,1.7-1.5,3.3-1.5C249.6,138.5,251.3,140.1,251.3,143.1z"/>
		<path class="st0" d="M253.2,144.2c0-3.3,2.4-5.7,5.6-5.7c3.2,0,5.7,2.4,5.7,5.7s-2.4,5.7-5.7,5.7
			C255.7,149.9,253.2,147.5,253.2,144.2z M262.3,144.2c0-2-1.4-3.7-3.4-3.7s-3.3,1.7-3.3,3.7s1.3,3.7,3.4,3.7
			C260.9,147.9,262.3,146.2,262.3,144.2z"/>
		<path class="st0" d="M270.5,149.9c-2.7,0-4.4-1.6-4.5-3.8h2.2c0,1.5,1.3,2,2.3,2s1.9-0.4,1.9-1.3c0-1-1.1-1.5-2.4-1.9
			c-1.6-0.5-3.6-1.2-3.6-3.2c0-1.9,1.7-3.2,4-3.2c2.5,0,3.9,1.5,4,3.3h-2.1c0-0.9-0.9-1.6-2-1.6c-0.9,0-1.6,0.5-1.6,1.3
			c0,0.9,0.8,1.3,2.3,1.8c2.1,0.6,3.7,1.5,3.7,3.5C274.6,148.8,272.8,149.9,270.5,149.9z"/>
		<path class="st0" d="M287.4,144.2c0,3.5-2.3,5.7-5.1,5.7c-1.5,0-2.7-0.6-3.3-1.7v5.9h-2.2v-15.4h1.7l0.3,1.5h0.2
			c0.6-0.9,1.6-1.7,3.4-1.7C285.2,138.5,287.4,140.7,287.4,144.2z M285.1,144.2c0-2.2-1.3-3.7-3.1-3.7s-3.1,1.5-3.1,3.7
			s1.2,3.7,3.1,3.7S285.1,146.4,285.1,144.2z"/>
		<path class="st0" d="M289.1,135.6c0-0.8,0.7-1.5,1.5-1.5s1.5,0.7,1.5,1.5s-0.7,1.5-1.5,1.5C289.8,137.1,289.1,136.4,289.1,135.6z
			 M291.8,149.7h-2.3v-11h2.3V149.7z"/>
		<path class="st0" d="M298.5,149.9c-1.6,0-2.9-0.7-2.9-3.1v-6.2h-2.2v-1.7h0.7c1.2,0,1.7-0.5,1.7-1.5V136h2v2.8h2.7v1.8h-2.7v6
			c0,1,0.4,1.4,1.1,1.4c0.4,0,0.8-0.2,1-0.3l0.5,1.8C300,149.6,299.4,149.9,298.5,149.9z"/>
		<path class="st0" d="M311.9,147.8v1.9h-0.4c-1.1,0-1.9-0.4-2.2-1.5c-0.9,1-2.2,1.7-3.8,1.7c-2.1,0-3.8-1.1-3.8-3.1
			c0-2.3,2-3.4,5-3.7l2.1-0.2v-0.3c0-1.5-0.8-2.5-2.1-2.5c-1.5,0-2.1,1.1-2.3,2h-2.2c0.2-2.1,1.8-3.8,4.4-3.8c2.5,0,4.3,1.5,4.3,4.4
			v3.9C310.9,147.6,311.2,147.8,311.9,147.8z M308.7,145.2v-0.6l-1.7,0.1c-2,0.2-3.1,0.8-3.1,1.9c0,1,0.8,1.4,1.8,1.4
			C307.2,148.1,308.7,147.1,308.7,145.2z"/>
		<path class="st0" d="M316,134v15.6h-2.3V134H316z"/>
		<path class="st0" d="M318.4,135.6c0-0.8,0.7-1.5,1.5-1.5s1.5,0.7,1.5,1.5s-0.7,1.5-1.5,1.5S318.4,136.4,318.4,135.6z M321,149.7
			h-2.3v-11h2.3V149.7z"/>
		<path class="st0" d="M333.5,144.7h-8.2c0.2,2,1.2,3.3,3.3,3.3c1.2,0,2.3-0.5,2.7-1.6h2.2c-0.6,2.3-2.6,3.5-4.9,3.5
			c-3.4,0-5.5-2.3-5.5-5.8c0-3.3,2.3-5.7,5.3-5.7C331.3,138.5,333.8,140.3,333.5,144.7z M331.4,143c0-1.5-1.1-2.8-2.9-2.8
			c-1.6,0-2.8,1.1-3.1,2.8H331.4z"/>
		<path class="st0" d="M342,138.5v2.3c-0.2,0-0.6-0.1-1-0.1c-1.5,0-3,1.1-3,3.7v5.4h-2.3v-11h1.8l0.4,1.5h0.2
			c0.6-0.9,1.5-1.8,3.3-1.8L342,138.5L342,138.5z"/>
		<path class="st0" d="M140.9,167.1v-6.5h2.4v6.1c0,2.1,1.1,3.1,2.6,3.1c1.3,0,2.5-0.9,2.5-3v-6.1h2.4v11H149l-0.3-1.4h-0.2
			c-0.5,0.7-1.3,1.6-3.3,1.6C142.7,171.9,140.9,170.3,140.9,167.1z"/>
		<path class="st0" d="M163.3,165.2v6.5h-2.4v-6.1c0-2.1-1.1-3.1-2.6-3.1c-1.3,0-2.6,0.9-2.6,3v6.1h-2.4v-11h1.8l0.3,1.4h0.2
			c0.5-0.7,1.3-1.6,3.4-1.6C161.5,160.5,163.3,162.1,163.3,165.2z"/>
		<path class="st0" d="M165.5,157.6c0-0.8,0.7-1.5,1.5-1.5s1.5,0.7,1.5,1.5s-0.7,1.5-1.5,1.5S165.5,158.4,165.5,157.6z M168.1,171.7
			h-2.3v-11h2.3V171.7z"/>
		<path class="st0" d="M180.9,160.7l-3.9,11h-3.3l-3.9-11h2.4l3.1,9h0.2l3.1-9H180.9z"/>
		<path class="st0" d="M192,166.7h-8.2c0.2,2,1.2,3.3,3.3,3.3c1.2,0,2.3-0.5,2.7-1.6h2.2c-0.6,2.3-2.6,3.5-4.9,3.5
			c-3.4,0-5.5-2.3-5.5-5.8c0-3.3,2.3-5.7,5.3-5.7C189.8,160.5,192.3,162.4,192,166.7z M189.9,165c0-1.5-1.1-2.8-2.9-2.8
			c-1.6,0-2.8,1.1-3.1,2.8H189.9z"/>
		<path class="st0" d="M200.6,160.5v2.3c-0.2,0-0.6-0.1-1-0.1c-1.5,0-3,1.1-3,3.7v5.4h-2.3v-11h1.8l0.4,1.5h0.2
			c0.6-0.9,1.5-1.8,3.3-1.8L200.6,160.5L200.6,160.5z"/>
		<path class="st0" d="M206.3,171.9c-2.7,0-4.4-1.6-4.5-3.8h2.2c0,1.5,1.3,2,2.3,2s1.8-0.4,1.8-1.3c0-1-1.1-1.5-2.4-1.9
			c-1.6-0.5-3.6-1.2-3.6-3.2c0-1.9,1.7-3.2,4-3.2c2.5,0,3.9,1.5,4,3.3H208c0-0.9-0.9-1.6-2-1.6c-0.9,0-1.6,0.5-1.6,1.3
			c0,0.9,0.8,1.3,2.3,1.8c2.1,0.6,3.7,1.5,3.7,3.5S208.6,171.9,206.3,171.9z"/>
		<path class="st0" d="M212.1,157.6c0-0.8,0.7-1.5,1.5-1.5s1.5,0.7,1.5,1.5s-0.7,1.5-1.5,1.5S212.1,158.4,212.1,157.6z M214.8,171.7
			h-2.3v-11h2.3V171.7z"/>
		<path class="st0" d="M221.6,171.9c-1.6,0-2.9-0.7-2.9-3.1v-6.2h-2.2v-1.7h0.7c1.2,0,1.7-0.5,1.7-1.5V158h2v2.8h2.7v1.8h-2.7v6
			c0,1,0.4,1.4,1.1,1.4c0.4,0,0.8-0.2,1-0.3l0.5,1.8C223.1,171.6,222.4,171.9,221.6,171.9z"/>
		<path class="st0" d="M234.9,169.8v1.9h-0.4c-1.1,0-1.9-0.4-2.2-1.5c-0.9,1-2.2,1.7-3.8,1.7c-2.1,0-3.8-1.1-3.8-3.1
			c0-2.3,2-3.4,5-3.7l2.1-0.2v-0.3c0-1.5-0.8-2.5-2.1-2.5c-1.5,0-2.1,1.1-2.3,2h-2.2c0.2-2.1,1.8-3.8,4.4-3.8c2.5,0,4.3,1.5,4.3,4.4
			v3.9C233.9,169.6,234.2,169.8,234.9,169.8z M231.7,167.2v-0.6l-1.7,0.1c-2,0.2-3.1,0.8-3.1,1.9c0,1,0.8,1.4,1.8,1.4
			C230.2,170.1,231.7,169.1,231.7,167.2z"/>
		<path class="st0" d="M236.3,157.6c0-0.8,0.7-1.5,1.5-1.5s1.5,0.7,1.5,1.5s-0.7,1.5-1.5,1.5C237.1,159.1,236.3,158.4,236.3,157.6z
			 M239,171.7h-2.3v-11h2.3V171.7z"/>
		<path class="st0" d="M248,160.5v2.3c-0.2,0-0.6-0.1-1-0.1c-1.5,0-3,1.1-3,3.7v5.4h-2.3v-11h1.8l0.4,1.5h0.2
			c0.6-0.9,1.5-1.8,3.3-1.8L248,160.5L248,160.5z"/>
		<path class="st0" d="M259.5,166.7h-8.2c0.2,2,1.2,3.3,3.3,3.3c1.2,0,2.3-0.5,2.7-1.6h2.2c-0.6,2.3-2.6,3.5-4.9,3.5
			c-3.4,0-5.5-2.3-5.5-5.8c0-3.3,2.3-5.7,5.3-5.7C257.3,160.5,259.8,162.4,259.5,166.7z M257.4,165c0-1.5-1.1-2.8-2.9-2.8
			c-1.6,0-2.8,1.1-3.1,2.8H257.4z"/>
		<path class="st0" d="M283.4,165.1v6.6h-2.3v-6.5c0-1.8-1-2.6-2.2-2.6c-1.1,0-2.2,0.9-2.2,2.7v6.4h-2.3v-6.4c0-1.8-1-2.8-2.1-2.8
			s-2.3,0.9-2.3,2.7v6.5h-2.3v-11h1.8l0.3,1.4h0.2c0.5-0.8,1.6-1.6,3-1.6c1.7,0,2.8,1.1,3.1,2h0.2c0.5-1,1.5-2,3.3-2
			C281.8,160.5,283.4,161.9,283.4,165.1z"/>
		<path class="st0" d="M295.9,166.7h-8.2c0.2,2,1.2,3.3,3.3,3.3c1.2,0,2.3-0.5,2.7-1.6h2.2c-0.6,2.3-2.6,3.5-4.9,3.5
			c-3.4,0-5.5-2.3-5.5-5.8c0-3.3,2.3-5.7,5.3-5.7C293.7,160.5,296.1,162.4,295.9,166.7z M290,159.5l-2.3-3h2.5l1.4,3H290z
			 M293.7,165c0-1.5-1.1-2.8-2.9-2.8c-1.6,0-2.8,1.1-3.1,2.8H293.7z"/>
		<path class="st0" d="M304.4,160.5v2.3c-0.2,0-0.6-0.1-1-0.1c-1.5,0-3,1.1-3,3.7v5.4H298v-11h1.8l0.4,1.5h0.2
			c0.6-0.9,1.5-1.8,3.3-1.8L304.4,160.5L304.4,160.5z"/>
		<path class="st0" d="M315.9,166.7h-8.2c0.2,2,1.2,3.3,3.3,3.3c1.2,0,2.3-0.5,2.7-1.6h2.2c-0.6,2.3-2.6,3.5-4.9,3.5
			c-3.4,0-5.5-2.3-5.5-5.8c0-3.3,2.3-5.7,5.3-5.7C313.7,160.5,316.2,162.4,315.9,166.7z M313.8,165c0-1.5-1.1-2.8-2.9-2.8
			c-1.6,0-2.8,1.1-3.1,2.8H313.8z"/>
		<path class="st0" d="M325.5,163.9v1.9h-7.9v-1.9H325.5z"/>
		<path class="st0" d="M337.7,166.7h-8.2c0.2,2,1.2,3.3,3.3,3.3c1.2,0,2.3-0.5,2.7-1.6h2.2c-0.6,2.3-2.6,3.5-4.9,3.5
			c-3.4,0-5.5-2.3-5.5-5.8c0-3.3,2.3-5.7,5.3-5.7C335.5,160.5,338,162.4,337.7,166.7z M335.6,165c0-1.5-1.1-2.8-2.9-2.8
			c-1.6,0-2.8,1.1-3.1,2.8H335.6z"/>
		<path class="st0" d="M349.7,165.2v6.5h-2.4v-6.1c0-2.1-1.1-3.1-2.6-3.1c-1.3,0-2.6,0.9-2.6,3v6.1h-2.4v-11h1.8l0.3,1.4h0.2
			c0.5-0.7,1.3-1.6,3.4-1.6C347.9,160.5,349.7,162.1,349.7,165.2z"/>
		<path class="st0" d="M355.4,160.7h2.8v1.8h-2.8v9.2h-2.2v-9.2h-2v-1.8h2v-1.3c0-2.1,1.3-3.3,3.1-3.3c1.3,0,2.1,0.5,2.4,0.8
			l-0.7,1.7c-0.2-0.2-0.7-0.5-1.3-0.5c-0.8,0-1.2,0.5-1.2,1.5L355.4,160.7L355.4,160.7z"/>
		<path class="st0" d="M369.7,169.8v1.9h-0.4c-1.1,0-1.9-0.4-2.2-1.5c-0.9,1-2.2,1.7-3.8,1.7c-2.1,0-3.8-1.1-3.8-3.1
			c0-2.3,2-3.4,5-3.7l2.1-0.2v-0.3c0-1.5-0.8-2.5-2.1-2.5c-1.5,0-2.1,1.1-2.3,2H360c0.2-2.1,1.8-3.8,4.4-3.8c2.5,0,4.3,1.5,4.3,4.4
			v3.9C368.7,169.6,369,169.8,369.7,169.8z M366.5,167.2v-0.6l-1.7,0.1c-2,0.2-3.1,0.8-3.1,1.9c0,1,0.8,1.4,1.8,1.4
			C365,170.1,366.5,169.1,366.5,167.2z"/>
		<path class="st0" d="M381.4,165.2v6.5H379v-6.1c0-2.1-1.1-3.1-2.6-3.1c-1.3,0-2.6,0.9-2.6,3v6.1h-2.4v-11h1.8l0.3,1.4h0.2
			c0.5-0.7,1.3-1.6,3.4-1.6C379.6,160.5,381.4,162.1,381.4,165.2z"/>
		<path class="st0" d="M387.9,171.9c-1.6,0-2.9-0.7-2.9-3.1v-6.2h-2.2v-1.7h0.7c1.2,0,1.7-0.5,1.7-1.5V158h2v2.8h2.7v1.8h-2.7v6
			c0,1,0.4,1.4,1.1,1.4c0.4,0,0.8-0.2,1-0.3l0.5,1.8C389.4,171.6,388.8,171.9,387.9,171.9z"/>
	</g>
	<g>
		<path class="st1" d="M374.5,222.4v9.2v0.3h-0.4h-4.5h-0.4v-0.3v-8.4c0-2.5-1.4-3.6-3.2-3.6c-1.7,0-3.1,1.2-3.1,3.6v8.4v0.3h-0.4
			H358h-0.4v-0.3v-8.4c0-4.6,3.7-8.3,8.3-8.3c2,0,3.7,0.7,5.2,1.8l0.1,0.3l0.1-0.3c0.1-0.2,0.3-0.3,0.5-0.5l0.3-0.1l-0.3-0.1
			c-1.2-1.4-2-3.2-2-5.1v-18.4v-0.3h0.4h4.5h0.4v0.3v18.4c0,2,1.1,2.9,2.6,2.9c1.4,0,2.6-1,2.6-2.9v-18.4v-0.3h0.4h4.5h0.4v0.3v18.4
			c0,2-0.7,3.8-2,5.1l-0.3,0.1l0.3,0.1c0.2,0.1,0.3,0.3,0.5,0.5l0.1,0.3l0.1-0.3c1.4-1.1,3.2-1.8,5.2-1.8c4.6,0,8.3,3.7,8.3,8.3v8.4
			v0.3h-0.4h-4.5h-0.4v-0.3v-8.4c0-2.5-1.4-3.6-3.2-3.6c-1.7,0-3.2,1.2-3.2,3.6v8.4v0.3h-0.4h-4.5h-0.4v-0.3v-9.2
			c0-2.5-1.5-3.8-3.3-3.8C376,218.6,374.5,219.9,374.5,222.4L374.5,222.4z"/>
		<path class="st1" d="M273.5,254.7h4.7v-0.5l-1.8-0.4v-16.1h-4.9v0.6l1.9,0.5v5.4c-0.8-0.7-2.1-1.3-3.7-1.3c-3,0-5.1,2.6-5.1,6.2
			c0,3.7,2,5.8,5.2,5.8c1.5,0,2.8-0.6,3.7-1.4L273.5,254.7L273.5,254.7z M273.5,252.5L273.5,252.5c-0.7,0.5-1.5,1-2.7,1
			c-1.6,0-3-1.2-3-4.4c0-3.3,1.1-4.8,3-4.8c1.2,0,2.1,0.4,2.7,1.1V252.5L273.5,252.5z"/>
		<polygon class="st1" points="318.1,237.7 318.1,238.2 316.3,238.7 316.3,253.7 318.1,254.2 318.1,254.7 310.7,254.7 310.7,254.2 
			313,253.7 313,241.7 307.5,254.7 306.2,254.7 300.8,241.7 300.8,253.7 303.1,254.1 303.1,254.7 297.7,254.7 297.7,254.2 
			299.2,253.8 299.2,238.6 297.7,238.2 297.7,237.7 302.5,237.7 307.8,250.7 313.2,237.7 		"/>
		<path class="st1" d="M325.5,242.9c-3.4,0-6.4,2.3-6.4,6c0,3.6,3,6,6.4,6s6.4-2.4,6.4-6C331.9,245.3,328.9,242.9,325.5,242.9
			L325.5,242.9z M325.5,243.8L325.5,243.8c2,0,3.1,2.3,3.1,5.2s-1.1,5.2-3.1,5.2s-3.1-2.4-3.1-5.2
			C322.4,246.1,323.5,243.8,325.5,243.8L325.5,243.8z"/>
		<path class="st1" d="M387.2,246.5v2l-2.7,0.1c-2.6,0.1-4.2,1.5-4.2,3.4s1.4,3,3.4,3c1.6,0,2.7-0.8,3.5-1.3v1h4.3v-0.5l-1.4-0.4
			V246c0-1.7-1.1-3.1-3.7-3.1s-4.2,0.7-5.1,1.1v2.7h1.3l0.4-2.2c0.3-0.1,1.1-0.4,2.4-0.3C387,244.3,387.2,245.4,387.2,246.5
			L387.2,246.5z M387.2,252.8L387.2,252.8c-0.6,0.4-1.1,0.8-2.1,0.8c-1.5,0-1.9-0.9-1.9-2s0.8-1.9,2.2-2.1l1.9-0.2v3.5H387.2z"/>
		<polygon class="st1" points="399.4,254.2 399.4,254.7 392.9,254.7 392.9,254.2 394.7,253.8 394.7,238.7 392.9,238.2 392.9,237.7 
			397.7,237.7 397.7,253.8 		"/>
		<path class="st1" d="M249.2,216l-2.5-0.5V215h5.9v0.5l-1.8,0.5v10.3c0,4.3-2.3,6-7.1,6c-4.9,0-6.9-1.9-6.9-5.8v-10.7l-1.8-0.4
			v-0.5h7.5v0.6l-2.6,0.4v10.5c0,3.2,1.1,4.7,4.4,4.7c3.6,0,4.9-1.6,4.9-5L249.2,216L249.2,216z"/>
		<path class="st1" d="M259.3,231.5v0.5H253v-0.5l1.7-0.4v-9.8l-1.6-0.4v-0.5h4.6v1.8c0.5-0.4,2.2-1.9,4.3-1.9
			c2.2,0,3.3,1.2,3.3,3.4v7.5l1.7,0.4v0.5h-6.2v-0.5l1.5-0.4V224c0-1.1-0.3-2.1-1.8-2.1c-1.3,0-2.5,0.9-2.9,1.1v8.2L259.3,231.5
			L259.3,231.5z"/>
		<polygon class="st1" points="272.8,231.1 274.5,231.5 274.5,232 268,232 268,231.5 269.8,231.1 269.8,221.3 268.2,220.9 
			268.2,220.3 272.8,220.3 		"/>
		<path class="st1" d="M272.9,216.3c0,0.9-0.8,1.6-1.7,1.6c-0.9,0-1.7-0.7-1.7-1.6c0-0.9,0.8-1.7,1.7-1.7S272.9,215.4,272.9,216.3
			L272.9,216.3z"/>
		<polygon class="st1" points="324.2,231.1 326,231.5 326,232 319.5,232 319.5,231.5 321.3,231.1 321.3,221.3 319.7,220.9 
			319.7,220.3 324.2,220.3 		"/>
		<path class="st1" d="M324.4,216.3c0,0.9-0.8,1.6-1.7,1.6c-0.9,0-1.7-0.7-1.7-1.6c0-0.9,0.8-1.7,1.7-1.7S324.4,215.4,324.4,216.3
			L324.4,216.3z"/>
		<polygon class="st1" points="275.4,221.1 274.6,220.8 274.6,220.3 280.3,220.3 280.3,220.8 278.4,221.2 281.1,228.3 283.6,221.2 
			282.1,220.8 282.1,220.3 285.9,220.3 285.9,220.8 285,221.2 280.5,232.2 279.6,232.2 		"/>
		<path class="st1" d="M289.4,225.4h7.7c-0.1-3.2-1.8-5.2-5.1-5.2c-3.3,0-5.8,2.9-5.8,6c0,3.6,2.4,6,5.8,6c2.9,0,4.5-1.2,5.3-1.8
			l-0.5-0.8c-0.7,0.4-2,1.3-4.3,1.2C290.3,230.7,289.1,228.3,289.4,225.4L289.4,225.4z M294.2,224.5L294.2,224.5h-4.6
			c0.3-2,1-3.5,2.4-3.5C293.5,221,294.1,222.9,294.2,224.5L294.2,224.5z"/>
		<path class="st1" d="M317.2,220.8l-0.3,2.9h-1.1l-0.3-1.9c-0.4-0.2-0.9-0.7-2.1-0.7c-0.9,0-1.7,0.5-1.7,1.5c0,1.2,1.3,1.7,2.7,2.3
			c1.3,0.5,3.4,1.3,3.4,3.4c0,2.4-1.9,4-4.3,4c-2.2,0-3.4-0.5-3.8-0.6l-0.2-3.2l1.1-0.1l0.6,2.2c0.3,0.2,1.2,0.9,2.2,0.9
			c1.5,0,2.2-0.8,2.2-1.9c0-1.3-1.9-1.9-3.1-2.5s-2.9-1-2.9-3.4c0-2,1.6-3.4,3.8-3.4C315.5,220.2,316.6,220.6,317.2,220.8
			L317.2,220.8z"/>
		<polygon class="st1" points="345.8,216.5 344.7,214.8 340.7,217.9 341.4,218.9 		"/>
		<path class="st1" d="M338.9,225.4h7.7c-0.1-3.2-1.8-5.2-5.1-5.2c-3.3,0-5.8,2.9-5.8,6c0,3.6,2.4,6,5.8,6c2.9,0,4.5-1.2,5.3-1.8
			l-0.5-0.8c-0.7,0.4-2,1.3-4.3,1.2C339.8,230.7,338.6,228.3,338.9,225.4L338.9,225.4z M343.6,224.5L343.6,224.5H339
			c0.3-2,1.1-3.5,2.4-3.5C343,221,343.5,222.9,343.6,224.5L343.6,224.5z"/>
		<path class="st1" d="M307,220.2c-1.7,0-2.9,1.3-3.6,2.9h-0.1v-2.7h-4.7v0.5l1.8,0.5v9.8l-1.8,0.4v0.5h7.3v-0.6l-2.5-0.4v-6.6
			c0.7-1.5,1.7-2.1,2.4-2.1c0.5,0,0.7,0.1,1.1,0.4c0.1,0.1,0.6,0.3,0.9,0.1c0.6-0.2,0.7-0.7,0.7-1.3
			C308.4,220.8,307.8,220.2,307,220.2L307,220.2z"/>
		<path class="st1" d="M339.5,254.2v0.5h-6.4v-0.5l1.7-0.4v-9.7l-1.6-0.5v-0.5h4.6v1.8c0.5-0.5,2.2-1.9,4.3-1.9
			c2.2,0,3.3,1.2,3.3,3.4v7.5l1.7,0.4v0.5h-6.2v-0.5l1.5-0.4v-7.2c0-1.1-0.3-2.1-1.8-2.1c-1.3,0-2.5,0.9-2.9,1.1v8.2L339.5,254.2
			L339.5,254.2z"/>
		<path class="st1" d="M365.6,242.9c-1.7,0-2.9,1.3-3.6,2.9l0,0V243h-4.7v0.5l1.8,0.5v9.7l-1.8,0.4v0.5h7.3V254l-2.5-0.4V247
			c0.7-1.5,1.7-2.2,2.4-2.2c0.5,0,0.7,0.1,1,0.4c0.1,0.1,0.6,0.3,0.9,0.1c0.6-0.2,0.7-0.7,0.7-1.3
			C367.1,243.5,366.4,242.9,365.6,242.9L365.6,242.9z"/>
		<path class="st1" d="M334.7,230.7c-0.4,0.3-0.9,0.5-1.5,0.5c-1.1,0-1.4-0.8-1.4-2.5v-7.3l3-0.4v-0.6h-3V215h-1
			c-0.2,3.1-1.3,5.1-4,5.4h-0.5v0.6l2.5,0.4v7.5c0,2.4,0.6,3.4,2.8,3.4c1.6,0,2.9-0.6,3.4-1.1L334.7,230.7L334.7,230.7z"/>
		<path class="st1" d="M355.9,253.4c-0.4,0.3-0.9,0.5-1.5,0.5c-1.1,0-1.4-0.8-1.4-2.5v-7.3l3-0.4v-0.6h-3v-5.4h-1
			c-0.2,3.1-1.3,5.1-4,5.4h-0.5v0.6l2.5,0.4v7.5c0,2.4,0.6,3.4,2.8,3.4c1.6,0,2.9-0.6,3.4-1.1L355.9,253.4L355.9,253.4z"/>
		<path class="st1" d="M282.3,248.2h7.7c-0.1-3.2-1.8-5.2-5.1-5.2c-3.3,0-5.8,2.9-5.8,6c0,3.6,2.4,6,5.8,6c2.9,0,4.5-1.2,5.3-1.8
			l-0.5-0.8c-0.7,0.4-2,1.3-4.3,1.2C283.2,253.4,282.1,251.1,282.3,248.2L282.3,248.2z M287.1,247.3L287.1,247.3h-4.6
			c0.3-2,1-3.5,2.4-3.5C286.4,243.8,287,245.6,287.1,247.3L287.1,247.3z"/>
		<path class="st1" d="M370.6,248.2h7.7c-0.1-3.2-1.8-5.2-5.1-5.2c-3.3,0-5.8,2.9-5.8,6c0,3.6,2.4,6,5.8,6c2.9,0,4.5-1.2,5.4-1.8
			l-0.5-0.8c-0.7,0.4-2,1.3-4.3,1.2C371.5,253.4,370.4,251.1,370.6,248.2L370.6,248.2z M377.6,239.2L377.6,239.2l-1.1-1.7l-4,3.1
			l0.7,0.9L377.6,239.2L377.6,239.2z M375.4,247.3L375.4,247.3h-4.6c0.3-2,1-3.5,2.4-3.5C374.7,243.8,375.3,245.6,375.4,247.3
			L375.4,247.3z"/>
	</g>
	<g>
		<path class="st0" d="M71,31.5c1.1,0,2.3-0.1,3.4-0.3c4.6-0.8,9.1-3.1,12.3-6.4c10.7-10.7,6.5-18.4,3-21.9l0,0C88,1,85.3,0,82,0
			c-5.3-0.1-11.2,2.6-15.4,6.8c-7.2,7.2-8.9,16.8-3.9,21.8C64.7,30.5,67.6,31.5,71,31.5z"/>
		<path class="st0" d="M67.7,65.8c4.3,0,9.3-1.6,12.1-4.4c5.3-5.3,6.1-13,1.8-17.5l0,0c-4-4.1-15.2-0.7-19.9,3.5
			c-3.5,3.2-4.3,6.3-4.3,8.5c-0.1,2.8,1.1,5.6,3.2,7.7C62.1,65,64.7,65.8,67.7,65.8z"/>
		<path class="st0" d="M43,87.7c10.8-1.6,14.3-3.8,16-4.7c2.4-1.4,7-4.2,5.7-8c-0.9-2.7-4.2-2.7-10.1-1.9c-5.9,0.8-13.9,2.3-22.3,2
			c-4.2-0.2-11.5-2.1-12-8.2c-0.2-2,0.1-4.9,2.6-8.2c7.5-9.8,18-12.2,24.6-15.6c2.2-1.2,3.7-2,4.6-2.7c2.9-2.5,4-7.2,2.5-10
			c-1-1.9-3.7-4.4-11.1-2.5l0,0c-12.7,3.2-29.7,10-38.8,24c-5.8,9-5.3,17-3.5,21.2c4.1,9.6,15,13.8,21.6,14.6
			C27.7,88.3,35.4,88.9,43,87.7z"/>
		<path class="st0" d="M123.9,51.4c-0.9-7.4-4.4-14.7-11.1-20.2c-5.7-4.7-14.8-5.3-17.9-2.3c-2.2,2-2.3,5.1-0.4,7.8
			c6.8,9.4,9.4,17.5,8.3,23.9c-1.4,8.8-5.7,15.2-20.5,21c-4.6,1.8-10.5,3.4-15.6,4.9C62,87.8,57.9,89,55.3,90
			c-2.9,1.2-4.6,3.8-4,6.3c0.4,1.8,2.1,3.9,7.2,3.9c0.5,0,1.1,0,1.7-0.1c8-0.6,31.4-4,43.2-11.9C124.1,74.5,125.2,61.9,123.9,51.4z"
			/>
		<path class="st0" d="M48.3,154.9c-0.2-14.8,1.6-31.8-1.7-39.2c-2.6-5.7-11-9.7-16.6-8.4c-2.1,0.5-7.1,2.4-7,10.5
			c0.1,12,6.2,46.4,9,57.2c1.7,6.7,5.2,12.2,8.9,12.4c0.1,0,0.2,0,0.3,0c1.4,0,2.7-0.5,4.5-3.5C49.1,178,48.4,162.2,48.3,154.9z"/>
		<path class="st0" d="M95.5,163.4c-2-12.6-5.6-29.8-9-39c-3.3-8.8-6.4-15.5-15-14.4c-4.1,0.5-9.1,1.6-11.4,5.2
			c-1.4,2.2-1.5,5-0.4,8.3c7.6,22,21.8,57.2,28.3,62.9c0.8,0.7,2.9,2.6,5.3,2.6c0.7,0,1.4-0.2,2.1-0.5c3-1.7,3.4-6,1.7-16
			C96.5,169.9,96,166.8,95.5,163.4z"/>
	</g>
</g>
<g>
	<path class="st0" d="M150.7,19.6c-4.9,0-7.9-3.5-7.9-8.2c0-4.9,3.2-8.3,7.9-8.3c3.6,0,6.5,1.9,7.1,5.5h-3.3
		c-0.5-1.7-1.9-2.7-3.8-2.7c-2.9,0-4.8,2.4-4.8,5.5c0,3.2,2.1,5.4,4.8,5.4c2.1,0,3.6-1,4.1-2.6h3.3
		C157.5,17.6,154.4,19.6,150.7,19.6z"/>
	<path class="st0" d="M171,15.7c-0.5,2.4-2.4,3.9-5.4,3.9c-3.4,0-5.9-2.3-5.9-5.9c0-3.8,2.6-6.1,5.8-6.1c2.8,0,5.5,1.8,5.5,5.9
		c0,0.3,0,0.5,0,0.9h-8.3c0.1,1.7,1.2,2.9,3,2.9c1.3,0,2.2-0.5,2.5-1.5h2.8V15.7z M162.6,12.4h5.5C168,11,167,10,165.5,10
		C163.9,10,162.8,11,162.6,12.4z"/>
	<path class="st0" d="M173.2,7.8h2.7l0.3,1.4h0.2c0.7-0.9,1.7-1.6,3.4-1.6c2.7,0,4.5,1.7,4.5,4.8v7h-2.9V13c0-1.9-1.1-2.8-2.5-2.8
		s-2.6,0.9-2.6,2.9v6.2h-2.9V7.8H173.2z"/>
	<path class="st0" d="M187.9,16.2v-6h-2.5V7.8h0.8c1.4,0,2-0.5,2-1.7V4.7h2.7v3.1h3v2.3h-3v5.7c0,0.6,0.2,1.4,1.5,1.4
		c0.3,0,0.8-0.1,1.1-0.2v2.2c-0.5,0.1-1.2,0.3-2,0.3C188.3,19.6,187.9,17.5,187.9,16.2z"/>
	<path class="st0" d="M195.6,7.8h2.7l0.3,1.6h0.2c0.7-1.1,1.5-1.9,3.4-1.9h0.8v2.9c-0.4-0.1-0.8-0.1-1.2-0.1c-2.5,0-3.2,1.9-3.2,3.5
		v5.4h-2.9V7.8H195.6z"/>
	<path class="st0" d="M215.2,15.7c-0.5,2.4-2.4,3.9-5.4,3.9c-3.4,0-5.9-2.3-5.9-5.9c0-3.8,2.6-6.1,5.8-6.1c2.8,0,5.5,1.8,5.5,5.9
		c0,0.3,0,0.5,0,0.9h-8.3c0.1,1.7,1.2,2.9,3,2.9c1.3,0,2.2-0.5,2.5-1.5h2.8V15.7z M206.9,12.4h5.5c-0.1-1.4-1.1-2.4-2.6-2.4
		C208.1,10,207.1,11,206.9,12.4z"/>
	<path class="st0" d="M235.1,3v16.3h-2.4l-0.3-1.4h-0.2c-0.6,0.7-1.6,1.6-3.4,1.6c-3.1,0-5.4-2.3-5.4-6s2.4-6,5.4-6
		c1.6,0,2.7,0.6,3.3,1.3V3H235.1z M232.1,13.6c0-2-1.1-3.4-2.9-3.4c-1.7,0-2.9,1.4-2.9,3.4c0,2.1,1.2,3.4,2.9,3.4
		C231,17,232.1,15.6,232.1,13.6z"/>
	<path class="st0" d="M248.4,15.7c-0.5,2.4-2.4,3.9-5.4,3.9c-3.4,0-5.9-2.3-5.9-5.9c0-3.8,2.6-6.1,5.8-6.1c2.8,0,5.5,1.8,5.5,5.9
		c0,0.3,0,0.5,0,0.9h-8.3c0.1,1.7,1.2,2.9,3,2.9c1.3,0,2.2-0.5,2.5-1.5h2.8V15.7z M240.1,12.4h5.5c-0.1-1.4-1.1-2.4-2.6-2.4
		C241.4,10,240.3,11,240.1,12.4z"/>
	<path class="st0" d="M256.9,7.8h2.7l0.3,1.6h0.2c0.7-1.1,1.5-1.9,3.4-1.9h0.8v2.9c-0.4-0.1-0.8-0.1-1.2-0.1c-2.5,0-3.2,1.9-3.2,3.5
		v5.4H257L256.9,7.8L256.9,7.8z"/>
	<path class="st0" d="M276.5,15.7c-0.5,2.4-2.4,3.9-5.4,3.9c-3.4,0-5.9-2.3-5.9-5.9c0-3.8,2.6-6.1,5.8-6.1c2.8,0,5.5,1.8,5.5,5.9
		c0,0.3,0,0.5,0,0.9h-8.3c0.1,1.7,1.2,2.9,3,2.9c1.3,0,2.2-0.5,2.5-1.5h2.8V15.7z M268.1,12.4h5.5c-0.1-1.4-1.1-2.4-2.6-2.4
		C269.4,10,268.3,11,268.1,12.4z M272.1,6.6h-2.3l1.7-3.3h2.5L272.1,6.6z"/>
	<path class="st0" d="M289.6,17.1v2.2h-1.2c-1.1,0-1.9-0.3-2.3-1.4c-0.8,1-2,1.6-3.8,1.6c-2.3,0-4.1-1.1-4.1-3.4
		c0-2.2,1.7-3.3,3.8-3.5l3.6-0.4v-0.5c0-1.3-0.8-1.9-1.9-1.9c-1.2,0-1.9,0.7-2.1,1.7h-2.9c0.2-2.4,2.1-4.1,5-4.1
		c2.7,0,4.9,1.4,4.9,4.4V16c0,0.6,0.3,0.9,0.8,0.9h0.2V17.1z M285.5,14.3l-2.6,0.3c-1.1,0.1-1.9,0.6-1.9,1.4c0,0.9,0.7,1.2,1.6,1.2
		c1.2,0,2.8-0.6,2.8-2.4v-0.5H285.5z"/>
	<path class="st0" d="M302.4,3v16.3H300l-0.3-1.4h-0.2c-0.6,0.7-1.6,1.6-3.4,1.6c-3.1,0-5.4-2.3-5.4-6s2.4-6,5.4-6
		c1.6,0,2.7,0.6,3.3,1.3V3H302.4z M299.4,13.6c0-2-1.1-3.4-2.9-3.4c-1.7,0-2.9,1.4-2.9,3.4c0,2.1,1.2,3.4,2.9,3.4
		C298.3,17,299.4,15.6,299.4,13.6z"/>
	<path class="st0" d="M315.9,17.1v2.2h-1.2c-1.1,0-1.9-0.3-2.3-1.4c-0.8,1-2,1.6-3.8,1.6c-2.3,0-4.1-1.1-4.1-3.4
		c0-2.2,1.7-3.3,3.8-3.5l3.6-0.4v-0.5c0-1.3-0.8-1.9-1.9-1.9c-1.2,0-1.9,0.7-2.1,1.7H305c0.2-2.4,2.1-4.1,5-4.1
		c2.7,0,4.9,1.4,4.9,4.4V16c0,0.6,0.3,0.9,0.8,0.9h0.2V17.1z M311.9,14.3l-2.6,0.3c-1.1,0.1-1.9,0.6-1.9,1.4c0,0.9,0.7,1.2,1.6,1.2
		c1.2,0,2.8-0.6,2.8-2.4v-0.5H311.9z"/>
	<path class="st0" d="M329.3,13.6c0,3.7-2.4,6-5.4,6c-1.6,0-2.7-0.6-3.3-1.3V24h-2.9V7.8h2.4l0.3,1.4h0.2c0.6-0.7,1.6-1.6,3.4-1.6
		C327,7.6,329.3,10,329.3,13.6z M326.4,13.6c0-2.1-1.2-3.4-2.9-3.4c-1.7,0-2.9,1.4-2.9,3.4s1.1,3.4,2.9,3.4
		C325.2,17,326.4,15.6,326.4,13.6z"/>
	<path class="st0" d="M332.7,16.2v-6h-2.5V7.8h0.8c1.4,0,2-0.5,2-1.7V4.7h2.7v3.1h3v2.3h-3v5.7c0,0.6,0.2,1.4,1.5,1.4
		c0.3,0,0.8-0.1,1.1-0.2v2.2c-0.5,0.1-1.2,0.3-2,0.3C333,19.6,332.7,17.5,332.7,16.2z"/>
	<path class="st0" d="M351.3,17.1v2.2H350c-1.1,0-1.9-0.3-2.3-1.4c-0.8,1-2,1.6-3.8,1.6c-2.3,0-4.1-1.1-4.1-3.4
		c0-2.2,1.7-3.3,3.8-3.5l3.6-0.4v-0.5c0-1.3-0.8-1.9-1.9-1.9c-1.2,0-1.9,0.7-2.1,1.7h-2.9c0.2-2.4,2.1-4.1,5-4.1
		c2.7,0,4.9,1.4,4.9,4.4V16c0,0.6,0.3,0.9,0.8,0.9h0.3V17.1z M347.2,14.3l-2.6,0.3c-1.1,0.1-1.9,0.6-1.9,1.4c0,0.9,0.7,1.2,1.6,1.2
		c1.2,0,2.8-0.6,2.8-2.4v-0.5H347.2z"/>
	<path class="st0" d="M354,16.2v-6h-2.5V7.8h0.8c1.4,0,2-0.5,2-1.7V4.7h2.7v3.1h3v2.3h-3v5.7c0,0.6,0.2,1.4,1.5,1.4
		c0.3,0,0.8-0.1,1.1-0.2v2.2c-0.5,0.1-1.2,0.3-2,0.3C354.4,19.6,354,17.5,354,16.2z"/>
	<path class="st0" d="M361.4,4.6c0-1,0.9-1.8,1.8-1.8s1.8,0.8,1.8,1.8c0,0.9-0.8,1.8-1.8,1.8S361.4,5.5,361.4,4.6z M361.7,7.8h2.9
		v11.5h-2.9V7.8z"/>
	<path class="st0" d="M366.8,13.6c0-3.5,2.6-6,6.1-6s6.1,2.4,6.1,6s-2.6,6-6.1,6S366.8,17.1,366.8,13.6z M376,13.6
		c0-1.9-1.3-3.4-3.2-3.4s-3.1,1.5-3.1,3.4s1.2,3.4,3.1,3.4C374.8,17,376,15.5,376,13.6z"/>
	<path class="st0" d="M381,7.8h2.7l0.3,1.4h0.2c0.7-0.9,1.7-1.6,3.4-1.6c2.7,0,4.5,1.7,4.5,4.8v7h-2.9V13c0-1.9-1.1-2.8-2.5-2.8
		s-2.6,0.9-2.6,2.9v6.2H381V7.8z"/>
	<path class="st0" d="M160.6,41.3h-3V30.6h-0.2l-4,8.9h-3.1l-4-8.9h-0.2v10.7h-3V25.2h3.7l4.9,11h0.2l4.9-11h3.7v16.1H160.6z"/>
	<path class="st0" d="M174.7,39.1v2.2h-1.2c-1.1,0-1.9-0.3-2.3-1.4c-0.8,1-2,1.6-3.8,1.6c-2.3,0-4.1-1.1-4.1-3.4
		c0-2.2,1.7-3.3,3.8-3.5l3.6-0.4v-0.5c0-1.3-0.8-1.9-1.9-1.9c-1.2,0-1.9,0.7-2.1,1.7h-2.9c0.2-2.4,2.1-4.1,5-4.1
		c2.7,0,4.9,1.4,4.9,4.4V38c0,0.6,0.3,0.9,0.8,0.9h0.2V39.1z M170.7,36.3l-2.6,0.3c-1.1,0.1-1.9,0.6-1.9,1.4c0,0.9,0.7,1.2,1.6,1.2
		c1.2,0,2.8-0.6,2.8-2.4L170.7,36.3L170.7,36.3z"/>
	<path class="st0" d="M176.5,29.8h2.7l0.3,1.6h0.2c0.7-1.1,1.5-1.9,3.4-1.9h0.8v2.9c-0.4-0.1-0.8-0.1-1.2-0.1
		c-2.5,0-3.2,1.9-3.2,3.5v5.4h-2.9V29.8H176.5z"/>
	<path class="st0" d="M185,26.6c0-1,0.9-1.8,1.8-1.8s1.8,0.8,1.8,1.8c0,0.9-0.8,1.8-1.8,1.8S185,27.5,185,26.6z M185.4,29.8h2.9
		v11.5h-2.9V29.8z"/>
	<path class="st0" d="M201.7,37.7c-0.5,2.4-2.4,3.9-5.4,3.9c-3.4,0-5.9-2.3-5.9-5.9c0-3.8,2.6-6.1,5.8-6.1c2.8,0,5.5,1.8,5.5,5.9
		c0,0.3,0,0.5,0,0.9h-8.3c0.1,1.7,1.2,2.9,3,2.9c1.3,0,2.2-0.5,2.5-1.5h2.8V37.7z M193.4,34.4h5.5c-0.1-1.4-1.1-2.4-2.6-2.4
		C194.6,32,193.6,33,193.4,34.4z"/>
	<path class="st0" d="M221.5,38.7v2.6h-11V25.2h10.8v2.6h-7.8v4h6.7v2.6h-6.7v4.2L221.5,38.7L221.5,38.7z"/>
	<path class="st0" d="M223.7,29.8h2.7l0.3,1.4h0.2c0.7-0.9,1.7-1.6,3.4-1.6c2.7,0,4.5,1.7,4.5,4.8v7h-2.9V35c0-1.9-1.1-2.8-2.5-2.8
		s-2.6,0.9-2.6,2.9v6.2h-2.9V29.8H223.7z"/>
	<path class="st0" d="M241.4,29.8h2.9v2.3h-2.9v9.2h-2.9v-9.2H236v-2.3h2.4v-1.2c0-2.4,1.6-3.6,3.8-3.6c0.9,0,1.7,0.2,2.2,0.4
		l-0.5,2.1c-0.4-0.1-0.9-0.2-1.2-0.2c-0.9,0-1.4,0.4-1.4,1.4L241.4,29.8L241.4,29.8z"/>
	<path class="st0" d="M256.7,39.1v2.2h-1.2c-1.1,0-1.9-0.3-2.3-1.4c-0.8,1-2,1.6-3.8,1.6c-2.3,0-4.1-1.1-4.1-3.4
		c0-2.2,1.7-3.3,3.8-3.5l3.6-0.4v-0.5c0-1.3-0.8-1.9-1.9-1.9c-1.2,0-1.9,0.7-2.1,1.7h-2.9c0.2-2.4,2.1-4.1,5-4.1
		c2.7,0,4.9,1.4,4.9,4.4V38c0,0.6,0.3,0.9,0.8,0.9h0.2V39.1z M252.7,36.3l-2.6,0.3c-1.1,0.1-1.9,0.6-1.9,1.4c0,0.9,0.7,1.2,1.6,1.2
		c1.2,0,2.8-0.6,2.8-2.4L252.7,36.3L252.7,36.3z"/>
	<path class="st0" d="M258.5,29.8h2.7l0.3,1.4h0.2c0.7-0.9,1.7-1.6,3.4-1.6c2.7,0,4.5,1.7,4.5,4.8v7h-2.9V35c0-1.9-1.1-2.8-2.5-2.8
		s-2.6,0.9-2.6,2.9v6.2h-2.9V29.8H258.5z"/>
	<path class="st0" d="M273.2,38.2v-6h-2.5v-2.3h0.8c1.4,0,2-0.5,2-1.7v-1.4h2.7v3.1h3v2.3h-3v5.7c0,0.6,0.2,1.4,1.5,1.4
		c0.3,0,0.8-0.1,1.1-0.2v2.2c-0.5,0.1-1.2,0.3-2,0.3C273.6,41.6,273.2,39.5,273.2,38.2z"/>
</g>
</svg>
