<?xml version="1.0" encoding="utf-8"?>
<!-- Generator: Adobe Illustrator 26.0.2, SVG Export Plug-In . SVG Version: 6.00 Build 0)  -->
<svg version="1.1" id="Layer_1" xmlns="http://www.w3.org/2000/svg" xmlns:xlink="http://www.w3.org/1999/xlink" x="0px" y="0px"
	 viewBox="0 0 338.1 280.5" style="enable-background:new 0 0 338.1 280.5;" xml:space="preserve">
<style type="text/css">
	.st0{fill:#FFFFFF;}
</style>
<g>
	<g>
		<path class="st0" d="M166.1,223.9c4.6,0,6.9,3.1,6.9,6.9h0h15.4h0c-0.9-12.4-7.9-21.9-22.8-21.9c0,0,0,0,0,0c0,0,0,0,0,0
			c-12.6,0-22.8,9.9-22.8,21.7c0,11.5,6.3,16.8,17.6,20.8c5.5,1.9,12.1,3.4,12.1,8.4c0,3.5-2.6,5.8-6.7,5.8c-3.8,0-6.9-3.1-6.9-7.1
			h0h-16h0c0,12.1,8.3,21.9,22.9,21.9c0,0,0,0,0,0s0,0,0,0c12.6,0,22.7-9.9,22.7-21.7c0-10.5-5.6-17.2-17.6-20.8
			c-5.7-1.7-11.9-2.6-11.9-7.6C159.1,226,162.5,223.9,166.1,223.9z M176.1,227.7c-1-2.8-3.4-6.9-10.3-6.9V212
			c13.1,0,18,9.1,18.7,15.7H176.1z M155.5,261.7c1,3.7,4.6,6.9,10.3,7.1c0,0,0,0,0,0c0,0,0,0,0,0v8.6c0,0,0,0,0,0
			c-10.6,0-18.8-7.3-19-15.7H155.5z"/>
		<path class="st0" d="M231.8,224.4c4.6,0,8.9,1.4,12.7,3.7c1.7,1.1,3.3,2.3,4.8,3.8l11.3-10.7c-1.8-1.9-3.7-3.6-5.7-5.1
			c-6.1-4.5-13.5-7.2-23-7.2c0,0,0,0,0,0s0,0,0,0c-21.3,0-36.4,15.8-36.4,35.8c0,20,15.1,35.8,36.4,35.8c0,0,0,0,0,0s0,0,0,0
			c8.5,0,15.6-2.5,21.4-6.3c2.6-1.7,5-3.8,7.1-6l-11-10.7c-1.5,1.4-3.1,2.7-4.8,3.8c-3.8,2.4-8.1,3.7-12.7,3.7
			c-12,0-19.7-9-19.7-20.3S219.8,224.4,231.8,224.4z M255.6,221.2l-6.4,6.2c-1.2-0.9-2.5-1.8-3.8-2.5c-0.7-0.4-1.4-0.7-2.1-1
			c-3.5-1.6-7.4-2.5-11.4-2.5V212c6.9,0,12.7,1.5,17.6,4.4C251.7,217.7,253.7,219.3,255.6,221.2z M249,261.9l6.4,6.5
			c-1.6,1.5-3.2,2.7-4.9,3.9c-5.2,3.3-11.2,5.1-18.6,5.1v-9.3c5,0,9.9-1.4,13.7-3.7C246.8,263.7,247.9,262.8,249,261.9z"/>
		<path class="st0" d="M49.7,211.1L49.7,211.1l-17.2,36.3l-17.1-36.3h0H0h0v67.2h0h16.5h0v-30.1l14.7,32.3h0h2.7h0l14.7-32.1v29.9h0
			h16.3h0v-67.2h0H49.7z M38.5,260.8l-3.7-9l13.7-29v16.8L38.5,260.8z M4.1,275.2v-55.1l8.2,18.4v36.7H4.1z"/>
		<path class="st0" d="M114.6,211.1L114.6,211.1l0,42.1c0,9-3.9,12.1-10.2,12.1c-5.7,0-10-3.1-10-12.1v-42.1h0H78.1h0v44.6
			c0,15.4,11,24.9,26.3,24.9c0,0,0,0,0,0s0,0,0,0c14.8,0,26.6-9,26.6-24.9v-44.6h0H114.6z M126.9,214.3v23.8h-8.2v-23.8H126.9z
			 M90.3,214.3v23.8h-8.1v-23.8H90.3z"/>
		<path class="st0" d="M301.9,208.9c-21.3,0-36.2,15.8-36.2,35.8c0,20,14.9,35.8,36.2,35.8c21.2,0,36.2-15.8,36.2-35.8
			C338.1,224.7,323.1,208.9,301.9,208.9z M301.9,265c-12,0-19.5-9-19.5-20.3s7.5-20.3,19.5-20.3c11.9,0,19.5,9,19.5,20.3
			S313.8,265,301.9,265z M300.3,277.1c-0.2,0-0.3,0-0.5,0c-0.4,0-0.8,0-1.2-0.1c-0.2,0-0.3,0-0.5,0c-0.4,0-0.8-0.1-1.2-0.1
			c-0.1,0-0.3,0-0.4-0.1c-0.4-0.1-0.9-0.1-1.3-0.2c-0.1,0-0.1,0-0.2,0c-12.7-2.5-22-12.2-24.5-24.7h8.5c2,7.2,7.2,12.9,14.6,15.4
			c0.1,0,0.1,0,0.2,0.1c0.6,0.2,1.2,0.4,1.8,0.5c0,0,0.1,0,0.1,0c0.6,0.1,1.1,0.2,1.7,0.3c0.1,0,0.2,0,0.3,0
			c0.6,0.1,1.2,0.2,1.8,0.2c0.1,0,0.3,0,0.4,0c0.6,0,1.3,0.1,1.9,0.1c0.6,0,1.3,0,1.9-0.1c0.2,0,0.3,0,0.5,0c0.5,0,1.1-0.1,1.6-0.2
			c0.3,0,0.6-0.1,0.8-0.1c0.2,0,0.4-0.1,0.7-0.1c6.4-1.3,11.4-4.9,14.5-9.9c0.2-0.3,0.4-0.6,0.5-0.9c0.1-0.1,0.1-0.3,0.2-0.4
			c0.9-1.6,1.5-3.2,2-5h8.5c-0.4,1.9-0.9,3.8-1.6,5.6c-0.1,0.2-0.2,0.4-0.2,0.6c-0.1,0.2-0.2,0.4-0.3,0.7c-0.1,0.3-0.3,0.6-0.4,0.9
			c0,0.1-0.1,0.2-0.1,0.3c-3.9,8-10.9,13.9-19.8,16.3c-0.1,0-0.2,0.1-0.3,0.1c-0.3,0.1-0.6,0.2-0.9,0.2c-0.2,0-0.4,0.1-0.6,0.1
			c-0.3,0.1-0.5,0.1-0.8,0.2c-0.2,0-0.5,0.1-0.7,0.1c-0.3,0-0.5,0.1-0.8,0.1c-0.3,0-0.6,0.1-0.9,0.1c-0.2,0-0.5,0.1-0.7,0.1
			c-0.3,0-0.7,0.1-1,0.1c-0.2,0-0.4,0-0.6,0c-0.5,0-1.1,0-1.6,0C301.3,277.2,300.8,277.2,300.3,277.1z"/>
	</g>
	<g>
		<path class="st0" d="M202.8,32.4c2.2,0.1,4.4,0.9,6.1,2.2c0.2,0.2,0.4,0.2,0.7,0.2c0.3,0,0.7-0.2,0.9-0.5c0.4-0.5,0.3-1.2-0.2-1.6
			c-2.1-1.6-4.7-2.6-7.4-2.7c-0.6,0-1.2,0.4-1.2,1.1C201.7,31.8,202.2,32.4,202.8,32.4z"/>
		<path class="st0" d="M145.9,42.3c0.2,0.1,0.4,0.1,0.5,0.1c0.4,0,0.8-0.2,1-0.6c1.1-2.2,3.1-3.9,5.4-4.7c0.6-0.2,0.9-0.9,0.7-1.5
			c-0.2-0.6-0.9-0.9-1.5-0.7c-2.8,1-5.2,3.2-6.6,5.8C145.1,41.4,145.3,42.1,145.9,42.3z"/>
		<path class="st0" d="M153.1,53.4c0.2,2,1.8,3.5,3.8,3.5c0.1,0,0.2,0,0.3,0c2.1-0.2,3.7-2,3.5-4.1c-0.2-2.1-2-3.7-4.1-3.5
			c-0.2,0-0.3,0.1-0.5,0.1c1,0.1,1.7,0.9,1.8,1.9c0.1,1.2-0.8,2.2-1.9,2.3c-1.2,0.1-2.2-0.8-2.3-1.9c0-0.3,0-0.6,0.1-0.8
			C153.3,51.5,153,52.4,153.1,53.4z"/>
		<path class="st0" d="M202,53.1c0.1,0,0.2,0,0.3,0c2.1-0.2,3.7-2,3.5-4.1c-0.2-2.1-2-3.7-4.1-3.5c-0.3,0-0.5,0.1-0.7,0.1
			c0.9,0.2,1.7,0.9,1.7,1.9c0.1,1.2-0.8,2.2-1.9,2.3c-1.2,0.1-2.2-0.8-2.3-1.9c0,0,0,0,0,0c-0.2,0.6-0.3,1.2-0.3,1.8
			C198.4,51.6,200.1,53.1,202,53.1z"/>
		<path class="st0" d="M181.5,66.9c0.2,0.2,0.5,0.3,0.7,0.3c0.3,0,0.6-0.1,0.9-0.4l3.8-4.5c0.4-0.5,0.3-1.2-0.1-1.6
			c-0.5-0.4-1.2-0.3-1.6,0.1l-3,3.6l-3.6-3c-0.5-0.4-1.2-0.3-1.6,0.1c-0.4,0.5-0.3,1.2,0.1,1.6L181.5,66.9z"/>
		<path class="st0" d="M178.9,79.3c1,0.3,2,0.4,3,0.4c1.8,0,3.6-0.5,5.4-1.5c0.5-0.3,0.7-1,0.4-1.6c-0.3-0.5-1-0.7-1.6-0.4
			c-2.1,1.2-4.3,1.5-6.5,0.9c-2.5-0.8-4.7-2.7-6-5.5c-0.3-0.6-1-0.8-1.5-0.5c-0.6,0.3-0.8,1-0.5,1.5
			C173.1,75.9,175.8,78.3,178.9,79.3z"/>
		<path class="st0" d="M153.8,66.4c0.2,0.4,0.6,0.6,1,0.6c0.2,0,0.3,0,0.5-0.1c3.4-1.7,8.8-3.3,14.4-1.4c0.6,0.2,1.2-0.1,1.4-0.7
			c0.2-0.6-0.1-1.2-0.7-1.4c-5.1-1.7-10.7-1.2-16.2,1.5C153.8,65.1,153.5,65.8,153.8,66.4z"/>
		<path class="st0" d="M167.8,67.1c-3.6,0.7-7,2.3-10.3,4.7c-0.5,0.4-0.6,1.1-0.3,1.6c0.2,0.3,0.6,0.5,0.9,0.5
			c0.2,0,0.5-0.1,0.7-0.2c3-2.2,6.2-3.7,9.5-4.3c0.6-0.1,1-0.7,0.9-1.4C169,67.4,168.4,67,167.8,67.1z"/>
		<path class="st0" d="M191,63.8c0.2,0,0.3,0,0.5-0.1c4.2-2,8.7-2.4,13.2-1.4c0.6,0.1,1.2-0.2,1.4-0.9c0.1-0.6-0.2-1.2-0.9-1.4
			c-5.1-1.2-10-0.7-14.7,1.5c-0.6,0.3-0.8,0.9-0.6,1.5C190.2,63.6,190.6,63.8,191,63.8z"/>
		<path class="st0" d="M204.1,66.6c-3.4-1-6.9-1.3-10.2-0.9c-0.6,0.1-1.1,0.7-1,1.3s0.7,1.1,1.3,1c3-0.4,6.1-0.1,9.3,0.8
			c0.1,0,0.2,0,0.3,0c0.5,0,0.9-0.3,1.1-0.8C205.1,67.5,204.7,66.8,204.1,66.6z"/>
		<path class="st0" d="M240.2,37.6c0.4-1.7,0.8-3.5,1.1-5.4c1.8-9.8,0.6-17.2-3.6-21.7C233,5.4,226,5.1,222.3,5.4
			c-3.7,0.3-7.1,2.6-9.6,6.5C199.8,4.3,184.9,0,169,0c-17.2,0-33.1,5.1-46.6,13.7c0,0-0.1,0-0.1,0c-3.8,0.3-10.6,1.7-14.4,7.5
			c-1.2,1.9-2,4.1-2.3,6.6C91.5,43.2,82.8,63.7,82.8,86.2c0,47.6,38.7,86.2,86.2,86.2c47.6,0,86.2-38.7,86.2-86.2
			C255.3,68.2,249.7,51.5,240.2,37.6z M250.7,86.2c0,0.5,0,1,0,1.5h-43.3c-0.6-0.9-1.4-1.7-2.3-2.3h45.5
			C250.7,85.7,250.7,86,250.7,86.2z M87.3,86.2c0-5.9,0.7-11.7,1.9-17.3c0.1-0.6,0.3-1.2,0.4-1.9c0-0.1,0.1-0.3,0.1-0.4
			c0.3-1.3,0.7-2.5,1.1-3.7c3.1-10.1,8.1-19.4,14.8-27.6c0.1-0.1,0.1-0.2,0.2-0.2c0.3,1.8,0.7,3.7,1.4,5.7c-5.3,7.1-9.4,15-12,23.5
			c-3,9.9-4.1,20.1-3,30.5c1,10.4,4.1,20.2,9.1,29.3c4.8,8.8,11.2,16.4,18.9,22.8c1.9,1.5,3.9,3,5.9,4.3c-0.2,1.4-0.4,2.8-0.6,4.1
			C102.6,140.8,87.3,115.3,87.3,86.2z M178.3,87.3c5.6-0.5,10.6-1.3,15.2-2.4c0.9,0.5,1.7,1,2.5,1.7c0.1,2.4-0.6,4.2-2.3,5.9
			c-0.8,0.8-1.7,1.6-2.8,2.2c-3-2.5-6.5-4.1-10.2-4.3c-3.9-0.3-7.7,0.8-11.2,3.1c-2.1-1.2-3.8-2.7-5.2-4.2c-0.4-0.5-0.9-1-1.4-1.6
			c1.6,0.1,3.3,0.1,5.1,0.1C171.2,87.8,174.7,87.6,178.3,87.3z M238.1,45.2h1.5c0.4,0.8,0.9,1.5,1.3,2.3h-3.6
			C237.6,46.7,237.8,46,238.1,45.2z M236.8,48.8h4.8c0.4,0.8,0.8,1.5,1.1,2.3h-7C236.1,50.4,236.4,49.6,236.8,48.8z M235,52.5h8.3
			c0.3,0.8,0.7,1.5,1,2.3h-10.7C234.2,54.1,234.6,53.3,235,52.5z M232.7,56.2h12.2c0.3,0.8,0.6,1.5,0.9,2.3h-15.2
			C231.4,57.8,232,57,232.7,56.2z M228.8,59.8h17.5c0.3,0.8,0.5,1.5,0.7,2.3h-25c0.1-0.2,0.1-0.5,0.2-0.7c0.4,0,0.7,0.1,1.1,0.1
			c0.3,0,0.6,0,0.8,0C225.8,61.3,227.4,60.7,228.8,59.8z M221.6,63.5h25.8c0.2,0.8,0.4,1.5,0.6,2.3h-27.4
			C221,65,221.3,64.3,221.6,63.5z M220,67.1h28.4c0.2,0.8,0.4,1.5,0.5,2.3h-30.3C219.2,68.7,219.6,67.9,220,67.1z M217.7,70.8h31.5
			c0.1,0.8,0.3,1.5,0.4,2.3h-33.8C216.5,72.4,217.1,71.6,217.7,70.8z M214.5,74.5h35.4c0.1,0.8,0.2,1.5,0.3,2.3h-38.4
			C212.7,76,213.6,75.3,214.5,74.5z M209.9,78.1h40.4c0.1,0.8,0.1,1.5,0.2,2.3h-44.5C207.3,79.7,208.6,78.9,209.9,78.1z M207.8,95.2
			c0.3,1.5,0.4,3.1,0.6,4.6c0.1,1.3,0.3,2.6,0.5,3.9c0.7,4.9,6,22.7,7.6,26.9c0.4,1.1,1,2.2,1.5,3.2c1,2,1.9,3.8,2,5.8
			c0.2,4.2-3.4,7.9-6.6,10.6c-0.6-2.4-1.3-4.8-1.9-7.1c-1.9-6.7-3.7-13-4.1-19.9c0-0.5-0.1-1-0.1-1.5c-0.2-5.7-0.5-15.5-2.8-23.9
			c0-0.1,0.1-0.1,0.1-0.2c0.4-1,0.8-5.3,0.3-9.5C206.3,89.7,207.3,92,207.8,95.2z M126.4,148.7c-1.4-1-2.9-2-4.2-3.1
			c0.1-1.1,0.3-2.4,0.5-3.8c0.6-5,1.4-11.6,2.3-18.5c0.6,2.5,1.6,4.8,3.2,6.2c0.5,0.4,1.1,0.7,1.7,1
			C128.7,135.9,127.4,142.2,126.4,148.7z M153.1,101.4c0-0.8-0.1-1.6-0.1-2.4c0.2,0.5,0.5,1.1,0.8,1.7c1,2.2,1.4,3.1,2.3,3.4
			c0.4,0.1,0.8,0,1.2-0.2c1.5-1,3.4-2.7,4.3-3.7c0.2-0.2,0.4-0.5,0.7-0.8c0.7-0.8,1.9-2.1,2.6-2.1c0.9,0,1.7,0.3,2.4,0.7
			c1.4,0.8,2.2,2.7,2.3,5.9c0.1,2.3,0,5-0.8,7.5c-0.9,2.5-2.5,4.4-4.5,5.2c-1.7,0.7-3.1,0.8-4.8,1c-0.6,0.1-1.2,0.1-1.8,0.2
			c-3,0.4-5.7,3-7.8,4.9l-0.1,0.1c-3,2.8-6.8,4.7-11.6,5.7c-2.7,0.6-6.9,0.3-8.4-1c-3.1-2.6-3.4-10.6-3.1-15
			c0.3-3.9,0.6-7.3,1.3-10.4c1.4-1.1,3.1-1.5,4.3-1.6c2-0.2,8.9-0.4,13.1,4.1c0,0.3-0.1,0.6-0.1,0.9c-0.1,1.4-0.3,3-1,4.7
			c0,0,0,0.1,0,0.1c-0.8,0.2-1.6,0.3-2.5,0.2c-0.7-0.1-1.3,0.4-1.4,1c-0.1,0.7,0.4,1.3,1,1.4c2.4,0.4,3.9-0.2,5.9-1.1
			c1.4-0.6,3-1.4,4.2-2.7C153.4,106.9,153.3,104,153.1,101.4z M162.1,120.9c3.8,0.8,7.8,1.5,12.1,1.7c1.1,0.1,2.2,0.1,3.2,0.1
			c13.4,0,22.2-4.7,27.1-8.4c0.1,1.2,0.1,2.4,0.2,3.5c-4.8,3.7-13.6,8.5-27.3,8.5c-1.1,0-2.1,0-3.2-0.1c-5.2-0.3-10.1-1.1-14.6-2.3
			C160.5,122.9,161.4,121.8,162.1,120.9z M157.9,125.9c5,1.4,10.4,2.4,16.2,2.7c1.1,0.1,2.3,0.1,3.4,0.1c13.1,0,22-4.2,27.4-8
			c0,0.2,0,0.5,0,0.7c-4,3.5-12.7,9.3-27.4,9.3c-1,0-2.1,0-3.1-0.1c-6.4-0.3-12.4-1.6-17.8-3.2C156.9,126.8,157.4,126.4,157.9,125.9
			z M154.6,129c5.8,1.9,12.4,3.3,19.6,3.7c1.1,0.1,2.2,0.1,3.2,0.1c13.9,0,22.8-5,27.5-8.7c0.1,1,0.2,2,0.3,3
			c-4.7,3.8-13.7,9-27.9,9c-1.1,0-2.1,0-3.2-0.1c-8.5-0.5-16.3-2.4-22.8-4.8C152.6,130.5,153.6,129.8,154.6,129z M204.3,111.6
			c-4.2,3.5-12.8,8.8-26.8,8.8c-1,0-2.1,0-3.1-0.1c-3.3-0.2-6.5-0.6-9.6-1.2c0.1-0.1,0.3-0.1,0.4-0.2c0.7-0.3,1.4-0.7,2.1-1.2
			c2.2,0.3,4.5,0.6,6.9,0.7c1.1,0.1,2.3,0.1,3.4,0.1c12.6,0,21.3-3.9,26.8-7.6C204.3,111.1,204.3,111.4,204.3,111.6z M150.6,98.6
			c-0.1,0.9,0,1.9,0,2.9c0.1,2.3,0.2,4.5-1.1,5.9c-0.6,0.7-1.5,1.2-2.4,1.6c0.3-1.2,0.4-2.4,0.5-3.3c0.1-0.9,0.2-1.7,0.4-2.2
			c0.2-0.6-0.1-1.3-0.7-1.6c-0.4-0.2-0.9,0-1.2,0.2c-4.8-4.4-11.9-4.1-14-3.9c-0.9,0.1-2.1,0.3-3.2,0.8c1.3-4.2,3.4-7.8,6.7-11
			c0.3-0.2,0.5-0.4,0.8-0.6c1-0.8,1.5-1.2,2.2-1.2c3.7,0,6.8,2.2,8.7,4c1.8,1.7,3.2,3.9,4.4,6.1C151,96.9,150.7,97.8,150.6,98.6z
			 M135.2,131.3c1.3,0,2.5-0.1,3.4-0.3c5.2-1.1,9.4-3.1,12.8-6.3l0.1-0.1c1.7-1.6,4.2-4,6.4-4.3c0.6-0.1,1.2-0.1,1.7-0.2
			c0.1,0,0.1,0,0.2,0c-1.6,1.9-3.9,4.5-5.1,5.7c-4.4,4.4-12.9,7.8-19.5,5.8c-0.3-0.1-0.6-0.2-1-0.4
			C134.6,131.2,134.9,131.3,135.2,131.3z M148.6,132.5c7.1,2.8,15.8,5.2,25.5,5.7c1.1,0.1,2.3,0.1,3.4,0.1c13.8,0,23-4.7,28.2-8.7
			c0,0.1,0.1,0.3,0.1,0.4c-3.4,3.3-12.3,10.1-28.3,10.1c-1,0-2.1,0-3.1-0.1c-10.8-0.6-20.4-3.7-27.7-6.9
			C147.3,133,148,132.8,148.6,132.5z M200.6,82.8c1.9,1.9,2.3,6.6,2.3,10.1c-0.1-0.5-0.2-0.8-0.3-1c-1.2-3.4-3.1-5.9-5.6-7.9
			C198.2,83.6,199.4,83.2,200.6,82.8z M188.7,95.9c-0.7,0.3-1.5,0.5-2.2,0.7c-4.2,1-9,0.6-13-1.1c-0.6-0.2-1.1-0.5-1.7-0.8
			c2.8-1.5,5.7-2.2,8.7-2C183.5,92.9,186.3,94,188.7,95.9z M159.8,87.4c1,1.3,2,2.5,2.8,3.4c2.5,2.8,5.8,5,10,6.8
			c4.5,1.9,9.7,2.3,14.4,1.2c3.2-0.8,6.1-2.4,8.3-4.6c1.5-1.6,2.5-3.2,2.8-5.2c1.1,1.5,2,3.4,2.8,5.4c0.4,1.4,0.7,2.3,1,3
			c0.2,0.7,0.4,1.4,0.6,2.2l-2-0.4l-0.8-1.9c-0.3-0.8-1.1-1.3-2-1.4c0,0-0.1,0-0.1,0c-0.8,0-1.6,0.4-2,1.2l-1,1.8l-2,0.2
			c-0.9,0.1-1.6,0.6-1.9,1.5s-0.1,1.7,0.5,2.4l1.4,1.5l-0.4,2c-0.2,0.8,0.1,1.7,0.8,2.3c0.4,0.3,0.9,0.5,1.4,0.5
			c0.3,0,0.7-0.1,1-0.2l1.8-0.9l1.7,1c0.4,0.2,0.8,0.3,1.2,0.3c0.4,0,0.9-0.1,1.2-0.4c0.7-0.5,1.1-1.3,1-2.2l-0.2-2l1.3-1.1
			c0.3,1.5,0.5,3.1,0.7,4.6c-5,3.6-13.6,8-26.5,8c-1.1,0-2.1,0-3.2-0.1c-1.7-0.1-3.4-0.3-5-0.5c0.7-1,1.3-2.1,1.8-3.4
			c1-2.9,1-5.9,1-8.4c-0.1-2.6-0.6-6.3-3.5-7.9c-1-0.6-2.2-0.9-3.5-1c-0.9,0-1.6,0.3-2.3,0.8c-0.8-2.9-2.5-5.7-3.3-7
			c-0.2-0.3-0.5-0.8-1-1.4C158.9,87.3,159.3,87.4,159.8,87.4z M200,107.1l-2.8-1.7l-2.9,1.4l0.7-3.2l-2.2-2.4l3.2-0.3l1.6-2.8l1.3,3
			l3.2,0.6l-2.4,2.1L200,107.1z M155.1,86.8c1.2,1.4,2,2.6,2.3,3.1c0.9,1.4,2.9,4.8,3.3,7.7c-0.1,0.1-0.2,0.2-0.3,0.3
			c-0.2,0.2-0.4,0.5-0.6,0.7c-0.8,0.8-2,1.9-3,2.7c-0.2-0.5-0.5-1.1-0.7-1.5c-0.4-0.9-0.8-1.7-1.1-2.3c0-0.1-0.1-0.2-0.1-0.3
			c-1.5-3.1-3.3-6.2-5.9-8.7c-3.2-3-6.8-4.6-10.4-4.6c-1.6,0-2.6,0.8-3.8,1.7c-0.2,0.2-0.5,0.4-0.8,0.6c0,0-0.1,0.1-0.1,0.1
			c-1.9,1.8-3.4,3.7-4.5,5.7c1.5-6.7,5.8-9.9,10.1-11.4C143.5,83.6,148.7,85.6,155.1,86.8z M126.8,93c-0.4,2.7-0.9,6-1.4,9.8
			c-0.4,2.2-0.7,4.4-0.9,6.5c-1.6,12.2-3.4,26.4-4.4,34.4c-2-1.8-4-3.6-5.8-5.5c2.2-17.3,5.8-45.5,6.7-49c1.3-5.5,4.2-11,14.3-12.6
			c0.7,0.8,1.3,1.5,2.1,2.2C132.1,81,128,85.4,126.8,93z M108.1,43.4c0,0.1,0.1,0.3,0.1,0.4h-0.4C107.9,43.7,108,43.6,108.1,43.4z
			 M95.1,74.5h38.5c0,0.1,0.1,0.1,0.1,0.2c-2.4,0.5-4.5,1.2-6.3,2.1H94.8C94.9,76,95,75.2,95.1,74.5z M122.8,80.4H94.3
			c0.1-0.8,0.2-1.5,0.2-2.3h30.6C124.3,78.8,123.5,79.6,122.8,80.4z M94.2,81.8h27.5c-0.5,0.7-0.9,1.5-1.3,2.3H94.1
			C94.1,83.3,94.2,82.5,94.2,81.8z M94.1,85.4h25.7c-0.3,0.7-0.5,1.5-0.8,2.3h-25C94.1,87,94.1,86.2,94.1,85.4z M118.7,89.1
			c-0.1,0.5-0.2,1.3-0.4,2.3H94.2c0-0.8-0.1-1.5-0.1-2.3H118.7z M118.1,92.8c-0.1,0.7-0.2,1.5-0.3,2.3H94.5c0-0.2,0-0.3-0.1-0.5
			c-0.1-0.6-0.1-1.2-0.1-1.8H118.1z M117.5,96.4c-0.1,0.7-0.2,1.5-0.3,2.3H95c-0.1-0.8-0.2-1.5-0.3-2.3H117.5z M117,100.1
			c-0.1,0.7-0.2,1.5-0.3,2.3h-21c-0.2-0.8-0.3-1.5-0.4-2.3H117z M116.5,103.7c-0.1,0.8-0.2,1.5-0.3,2.3H96.5
			c-0.2-0.8-0.4-1.5-0.5-2.3H116.5z M116,107.4c-0.1,0.8-0.2,1.5-0.3,2.3H97.5c-0.2-0.8-0.5-1.5-0.7-2.3H116z M115.5,111
			c-0.1,0.8-0.2,1.5-0.3,2.3H98.8c-0.3-0.8-0.5-1.5-0.8-2.3H115.5z M115,114.7c-0.1,0.8-0.2,1.5-0.3,2.3h-14.4
			c-0.3-0.8-0.6-1.5-0.9-2.3H115z M114.5,118.4c-0.1,0.8-0.2,1.5-0.3,2.3H102c-0.4-0.8-0.7-1.5-1.1-2.3H114.5z M114.1,122
			c-0.1,0.8-0.2,1.5-0.3,2.3H104c-0.3-0.4-0.5-0.9-0.8-1.3c-0.2-0.3-0.3-0.6-0.5-1H114.1z M113.6,125.7c-0.1,0.8-0.2,1.5-0.3,2.3
			h-7.1c-0.5-0.8-1-1.5-1.4-2.3H113.6z M113.1,129.3c-0.1,0.8-0.2,1.6-0.3,2.3h-4.1c-0.6-0.8-1.1-1.5-1.6-2.3H113.1z M112.7,133
			c-0.1,0.8-0.2,1.6-0.3,2.3h-0.7c-0.6-0.7-1.2-1.5-1.8-2.3H112.7z M95.4,73.1c0.1-0.8,0.3-1.5,0.5-2.3h35.7
			c0.4,0.8,0.8,1.6,1.2,2.3H95.4z M130.9,69.4H96.1c0.2-0.8,0.4-1.5,0.6-2.3h25.7c2.1,1.4,4.2,2.2,6.4,2.2c0.3,0,0.6,0,0.8,0
			c0.4,0,0.7-0.1,1.1-0.2C130.8,69.2,130.8,69.3,130.9,69.4z M97.1,65.8c0.1-0.3,0.1-0.5,0.2-0.8c0.2-0.5,0.3-1,0.5-1.5h20.7
			c0.7,0.9,1.5,1.6,2.2,2.3H97.1z M98.3,62.1c0.3-0.8,0.6-1.5,0.9-2.3h16.5c-0.3-0.4-0.6-0.9-0.8-1.4H99.7c0.3-0.8,0.6-1.5,1-2.3
			h12.9c1.2,2.3,2.5,4.3,3.8,5.9H98.3z M101.3,54.8c0.4-0.8,0.7-1.5,1.1-2.3h9.3c0.4,0.8,0.7,1.6,1.1,2.3H101.3z M103.2,51.1
			c0.4-0.8,0.9-1.5,1.3-2.3h5.6c0.3,0.8,0.7,1.5,1,2.3H103.2z M105.4,47.5c0.5-0.8,1-1.5,1.5-2.3h1.9c0.3,0.8,0.6,1.5,0.9,2.3H105.4
			z M131.1,136.2c2.9,1.9,9.8,6.2,19.3,9.6c0.7,8,2.6,15.2,5.6,21c-10.1-1.6-19.6-5.2-28.2-10.2
			C128.5,149.8,129.8,142.7,131.1,136.2z M131.6,133.8c0.1-0.5,0.2-1,0.3-1.5c0.7,0.7,1.6,1.2,2.7,1.5c1.6,0.5,3.2,0.7,4.8,0.7
			c1.2,0,2.5-0.1,3.7-0.3c7.7,3.7,18.6,7.6,31.1,8.3c1.1,0.1,2.2,0.1,3.2,0.1c15.2,0,24.5-6,28.8-9.8c0.3,1.3,0.6,2.7,0.9,4
			c-0.1-0.1-0.2-0.1-0.3-0.2c0,0,0,0,0,0c-2.2,2.5-12.6,12.9-33.6,11.8C152,147.2,135.1,136.2,131.6,133.8z M207.8,139
			c0.4,1.6,0.9,3.2,1.3,4.8c0.9,3.1,1.8,6.3,2.6,9.6c0.2,0.7,0.3,1.4,0.5,2.1c-4.5,2.8-9.2,5.2-14.2,7.1c2.8-5.8,4.9-12.7,5.9-20.2
			C205.7,141.1,207,139.9,207.8,139z M214.2,153.6c-0.1-0.2-0.1-0.5-0.2-0.7c0-0.1,0-0.1,0-0.2c0.3-0.2,0.6-0.4,0.8-0.7
			c0.3-0.2,0.6-0.5,0.9-0.7h2.7c-1,0.8-2.1,1.6-3.2,2.3H214.2z M217.1,149.9c0.7-0.7,1.4-1.5,2.1-2.3h3.6c-0.9,0.8-1.8,1.5-2.7,2.3
			H217.1z M220.2,146.3c0.5-0.7,0.9-1.5,1.2-2.3h5.3c-0.8,0.8-1.6,1.5-2.4,2.3H220.2z M222.2,139c-0.1-0.8-0.3-1.6-0.5-2.3h11.6
			c-0.6,0.8-1.2,1.5-1.9,2.3H222.2z M221.1,135.3c-0.3-0.8-0.7-1.5-1.1-2.3h15.9c-0.5,0.8-1.1,1.5-1.6,2.3H221.1z M219.4,131.6
			c-0.3-0.6-0.6-1.2-0.8-1.8c-0.1-0.1-0.1-0.3-0.2-0.5h20c-0.5,0.8-1,1.5-1.5,2.3H219.4z M217.9,128c-0.2-0.7-0.5-1.4-0.7-2.3h23.4
			c-0.4,0.8-0.9,1.5-1.3,2.3H217.9z M216.7,124.3c-0.2-0.7-0.5-1.5-0.7-2.3h26.4c-0.4,0.8-0.8,1.5-1.2,2.3H216.7z M215.6,120.7
			c-0.2-0.7-0.5-1.5-0.7-2.3h29.2c-0.3,0.8-0.7,1.5-1,2.3H215.6z M214.5,117c-0.2-0.8-0.4-1.5-0.7-2.3h31.7
			c-0.3,0.8-0.6,1.5-0.9,2.3H214.5z M213.5,113.3c-0.2-0.8-0.4-1.5-0.6-2.3h34c-0.2,0.8-0.5,1.5-0.8,2.3H213.5z M212.5,109.7
			c-0.2-0.8-0.4-1.6-0.6-2.3h36c-0.2,0.8-0.4,1.5-0.7,2.3H212.5z M211.6,106c-0.2-0.9-0.4-1.7-0.5-2.3h37.7
			c-0.2,0.8-0.3,1.5-0.5,2.3H211.6z M211,102.4c-0.1-0.8-0.2-1.5-0.3-2.3h38.8c-0.1,0.8-0.3,1.5-0.4,2.3H211z M210.5,98.7
			c-0.1-0.8-0.2-1.5-0.3-2.3h39.8c-0.1,0.8-0.2,1.5-0.3,2.3H210.5z M210.1,95c0-0.1,0-0.1,0-0.2c-0.1-0.7-0.3-1.4-0.4-2.1h40.8
			c-0.1,0.8-0.1,1.5-0.2,2.3H210.1z M209.2,91.4c-0.3-0.8-0.6-1.6-1-2.3h42.4c0,0.8-0.1,1.5-0.1,2.3H209.2z M203.9,84.1
			c-0.3-0.8-0.7-1.5-1.1-2.2c0.1,0,0.2-0.1,0.3-0.1h47.5c0,0.8,0.1,1.5,0.1,2.3H203.9z M238.8,43.8h-0.2c0-0.1,0-0.2,0.1-0.2
			C238.7,43.7,238.7,43.7,238.8,43.8z M207.6,19.6h1.7c-0.1,0.4-0.2,0.8-0.3,1.2C208.5,20.4,208,20,207.6,19.6z M209.6,18.2h-3.8
			c-1.1-0.8-2.2-1.6-3.3-2.3h8c0,0,0,0,0,0C210.2,16.7,209.9,17.4,209.6,18.2z M137.5,25.5c-0.4-0.8-0.8-1.5-1.2-2.3h3.2
			C138.8,24,138.1,24.7,137.5,25.5z M165.5,7.2c-0.1-0.9-0.5-1.6-1-2.3h12.3c4.4,0.4,8.8,1.2,13,2.3H165.5z M129.7,15.2
			c9.6-5.3,20-8.5,31-9.6c0.1,0,0.2,0,0.2,0c0.5,0,1,0.2,1.4,0.5c0.5,0.4,0.8,0.9,0.8,1.5c0.1,0.6-0.1,1.2-0.5,1.7
			c-0.4,0.5-0.9,0.8-1.5,0.8c-10,1-19.4,3.9-28.2,8.5c-1.2-1.3-2.5-2.4-3.8-3.2C129.4,15.4,129.6,15.3,129.7,15.2z M140.9,21.9h-5.4
			c-0.3-0.5-0.6-0.9-1-1.4c0.6-0.3,1.2-0.6,1.8-0.9h7.2C142.6,20.3,141.7,21.1,140.9,21.9z M145.3,18.2h-6c2-0.9,4-1.6,6-2.3h3.5
			C147.6,16.6,146.4,17.4,145.3,18.2z M151.4,14.5H150c0.9-0.2,1.9-0.5,2.8-0.7C152.3,14.1,151.9,14.3,151.4,14.5z M165.5,8.6h28.9
			c2.1,0.7,4.1,1.5,6.1,2.3h-9.3c-5.7-1.7-12.2-2.4-19.4-1.8c-2.4,0.2-4.6,0.5-6.8,0.9C165.3,9.6,165.4,9.1,165.5,8.6z M203.6,12.3
			c1.5,0.7,3,1.5,4.5,2.3h-7.9c-1.6-0.8-3.2-1.6-4.9-2.3H203.6z M109.9,22.5c3.2-5,9.3-6.2,12.6-6.5c0.2,0,0.5,0,0.7,0
			c5,0,9.7,4.6,12.7,11.5c0,0,0,0,0,0c0.2,0.9,0.5,1.9,0.9,2.6c7.9-11.4,21.7-17.5,35.2-18.7c1.7-0.1,3.3-0.2,4.8-0.2
			c15.1,0,26.3,6.2,33.6,14.4c0.1-0.2,0.1-0.3,0.1-0.5c0-0.1,0-0.3,0.1-0.4c0-0.2,0-0.4,0-0.6c0-0.5,0.1-1,0.1-1.4c0,0,0,0,0,0
			c0.5-2.5,1.2-4.8,2.2-6.8c2.3-4.9,5.7-7.8,9.4-8.1c0.6,0,1.3-0.1,2-0.1c3.5,0,8.2,0.8,11.5,4.4c3.7,4,4.7,10.7,3,19.8
			c-2.2,12.1-6.6,26.6-15,27.3c-0.2,0-0.4,0-0.7,0c-0.2,0-0.4,0-0.6,0c0.6-3.2,0.8-6.7,0.5-10.4c-0.5-6.5-3.1-13.8-7.6-20.4
			c0.2-2.8,0.8-5.8,2-8.2c2.6-5.2,4.5-6.5,4.5-6.5c0.5-0.3,0.7-1,0.4-1.6c-0.3-0.5-1-0.7-1.6-0.4c-0.2,0.1-2.5,1.6-5.3,7.5
			c-3.8,7.7-1.9,19-1.8,19.5c0.1,0.6,0.6,1,1.1,1c0.1,0,0.1,0,0.2,0c0.6-0.1,1-0.7,0.9-1.3c0-0.1-0.4-2.5-0.5-5.8
			c3.2,5.4,5,11.2,5.5,16.5c0.8,9.5-1.7,17.3-7.4,23.2c-7,7.2-18.9,11.5-35.4,12.9c-5.7,0.5-11.5,0.7-17,0.3c0,0,0-0.1-0.1-0.1
			c0,0-0.1,0.1-0.1,0.1c-15.8-1.2-29-7.7-30.7-28.8c-0.6-7.4,0.5-14,2.8-19.5c0.9,4.4,0.9,8.1,0.9,8.2c0,0.6,0.5,1.1,1.1,1.1
			c0.6,0,1.1-0.5,1.1-1.1c0-0.5-0.1-12-5-19c-3.8-5.3-6.2-6.4-6.5-6.5c-0.6-0.2-1.2,0-1.5,0.6c-0.2,0.6,0,1.2,0.6,1.5
			c0,0,2.1,1,5.5,5.7c1.3,1.8,2.2,4,2.9,6.2c-3.5,7.3-4.9,15.3-4.3,23c0.3,3.8,1,7.2,2,10.2c-0.1,0-0.3,0.1-0.5,0.1
			c-0.2,0-0.4,0-0.6,0c-8.2,0-14.7-13.2-18.7-24.5C107,33.8,106.9,27.1,109.9,22.5z M158.6,167.2c-3.1-5.5-5.2-12.6-5.9-20.6
			c6.1,2,13,3.6,20.5,4c1.1,0.1,2.3,0.1,3.3,0.1c11.4,0,19.5-3.3,24.8-6.6c-1.2,7.4-3.4,14-6.3,19.5c-8.2,2.7-16.9,4.3-26,4.3
			C165.5,167.9,162,167.7,158.6,167.2z M228.1,142.6h-6.1c0.2-0.7,0.3-1.5,0.3-2.3h7.9C229.5,141.1,228.8,141.9,228.1,142.6z"/>
	</g>
</g>
</svg>
