<?xml version="1.0" encoding="utf-8"?>
<!-- Generator: Adobe Illustrator 26.0.1, SVG Export Plug-In . SVG Version: 6.00 Build 0)  -->
<svg version="1.1" id="Layer_1" xmlns="http://www.w3.org/2000/svg" xmlns:xlink="http://www.w3.org/1999/xlink" x="0px" y="0px"
	 viewBox="0 0 216 126" style="enable-background:new 0 0 216 126;" xml:space="preserve">
<style type="text/css">
	.st0{fill:#FFFFFF;}
</style>
<g>
	<path class="st0" d="M170.9,84.4l0,8.2h-0.9l0-3.7c0-0.9,0-1.7,0.1-2.5l0,0c-0.2,0.6-0.5,1.4-0.8,2.1l-0.9,2.2h-0.9l-0.9-2.2
		c-0.3-0.8-0.6-1.5-0.8-2.1l-0.1,0c0,0.8,0.1,1.6,0.1,2.5l0,3.7h-0.9l0-8.2l1,0l1.4,3.4c0.2,0.5,0.5,1.3,0.6,1.7h0
		c0.1-0.4,0.4-1.2,0.6-1.7l1.4-3.4L170.9,84.4z"/>
	<path class="st0" d="M172.2,90l0-3c0-1.7,0.9-2.7,2.4-2.7c1.5,0,2.4,1,2.4,2.7l0,3c0,1.7-0.9,2.7-2.4,2.7
		C173.1,92.8,172.2,91.7,172.2,90 M176,90l0-3c0-1.1-0.5-1.8-1.4-1.8c-1,0-1.4,0.6-1.4,1.8l0,3c0,1.1,0.5,1.8,1.4,1.8
		C175.6,91.8,176,91.2,176,90"/>
	<path class="st0" d="M183,84.4l0,8.2h-1l-2-4.4c-0.3-0.6-0.6-1.5-0.8-2l0,0c0,0.7,0.1,1.8,0.1,2.5l0,3.9h-1l0-8.2h1l2,4.5
		c0.3,0.6,0.6,1.4,0.8,1.9l0,0c-0.1-0.7-0.1-1.9-0.1-2.6l0-3.8H183z"/>
	<polygon class="st0" points="188.4,85.3 186.6,85.3 186.6,92.6 185.7,92.6 185.7,85.3 183.9,85.3 183.9,84.4 188.4,84.4 	"/>
	<path class="st0" d="M191,89.5h-0.8l0,3.1h-1l0-8.2h2c1.5,0,2.4,0.9,2.4,2.5c0,1.3-0.6,2.2-1.6,2.5l1.9,3.2h-1.1L191,89.5z
		 M190.2,88.6h1c0.9,0,1.4-0.6,1.4-1.7c0-1.1-0.5-1.6-1.4-1.6l-1,0L190.2,88.6z"/>
	<path class="st0" d="M198.8,91.7v0.9l-4,0l0-8.2l3.9,0v0.9h-3l0,2.7l2.7,0v0.9l-2.7,0v2.8L198.8,91.7z M196.9,83.6l-0.8,0l1.1-1.4
		l1,0L196.9,83.6z"/>
	<path class="st0" d="M203,90.8h-2.4l-0.4,1.8l-1,0l2.1-8.2l1,0l2.1,8.2h-1L203,90.8z M202.8,90l-0.7-2.8c-0.1-0.5-0.2-1.2-0.3-1.5
		h0c0,0.3-0.2,1-0.3,1.5l-0.7,2.8L202.8,90z"/>
	<polygon class="st0" points="209.1,91.7 209.1,92.6 205.3,92.6 205.3,84.4 206.2,84.4 206.2,91.7 	"/>
	<rect x="8.3" y="37.7" class="st0" width="1" height="8.2"/>
	<path class="st0" d="M15.5,37.7l0,8.2h-1l-2-4.4c-0.3-0.6-0.6-1.5-0.8-2l0,0c0,0.7,0.1,1.8,0.1,2.5l0,3.9h-1l0-8.2h1l2,4.5
		c0.3,0.6,0.6,1.4,0.8,1.9l0,0c-0.1-0.7-0.1-1.9-0.1-2.6l0-3.8H15.5z"/>
	<path class="st0" d="M16.5,43.7l1,0c0,0.9,0.5,1.4,1.4,1.4c0.9,0,1.3-0.5,1.3-1.3c0-1.8-3.5-1.8-3.5-4.2c0-1.2,0.9-2,2.2-2
		c1.3,0,2.2,0.9,2.2,2.2h-1c0-0.9-0.5-1.3-1.2-1.3c-0.8,0-1.2,0.4-1.2,1.1c0,1.7,3.5,1.7,3.5,4.2c0,1.2-0.8,2.2-2.3,2.2
		C17.4,46,16.5,45.1,16.5,43.7"/>
	<polygon class="st0" points="26,38.6 24.2,38.6 24.2,45.8 23.3,45.8 23.3,38.6 21.5,38.6 21.5,37.7 26,37.7 	"/>
	<rect x="26.8" y="37.7" class="st0" width="1" height="8.2"/>
	<polygon class="st0" points="33.2,38.6 31.4,38.6 31.4,45.8 30.4,45.8 30.4,38.6 28.7,38.6 28.7,37.7 33.2,37.7 	"/>
	<path class="st0" d="M33.9,43.4l0-5.7l1,0l0,5.7c0,1.1,0.5,1.7,1.3,1.7c0.8,0,1.4-0.5,1.4-1.7l0-5.7l1,0l0,5.7
		c0,1.7-0.9,2.6-2.3,2.6C34.8,46,33.9,45,33.9,43.4"/>
	<polygon class="st0" points="43.8,38.6 42,38.6 42,45.8 41,45.8 41,38.6 39.3,38.6 39.3,37.7 43.8,37.7 	"/>
	<polygon class="st0" points="22,54.2 16.5,54.2 16.5,77 13.5,77 13.5,54.2 8,54.2 8,51.4 22,51.4 	"/>
	<path class="st0" d="M29.7,67.3l-2.6,0l0,9.7l-3,0l0-25.6l6.3,0c4.8,0,7.5,2.9,7.5,7.8c0,4.2-1.9,7-5.1,7.9l5.9,10l-3.4,0
		L29.7,67.3z M27.1,64.5l3.2,0c3,0,4.5-1.9,4.5-5.3c0-3.3-1.5-5-4.5-5l-3.3,0L27.1,64.5z"/>
	<path class="st0" d="M51.7,71.4l-7.4,0L43,77l-3.1,0l6.6-25.6l3.3,0L56.2,77l-3.1,0L51.7,71.4z M51.1,68.7L49,60
		c-0.4-1.6-0.8-3.8-0.9-4.8H48c-0.1,1-0.5,3.1-0.9,4.8L45,68.7L51.1,68.7z"/>
	<path class="st0" d="M72.8,51.4l0,25.6h-3l-6.3-13.8c-0.8-1.8-2-4.8-2.5-6.2l-0.1,0c0.1,2.3,0.3,5.7,0.3,7.9l0,12.1l-3,0l0-25.6
		l3,0l6.4,14c0.8,1.8,2,4.5,2.6,6l0.1,0c-0.2-2.2-0.4-5.8-0.4-8l0-11.8H72.8z"/>
	<path class="st0" d="M75.5,70.2l3,0c0.1,2.9,1.7,4.4,4.2,4.4c2.8,0,4.1-1.7,4.1-4.1c0-5.5-11-5.6-11-13.2c0-3.6,2.7-6.4,6.8-6.4
		c4.2,0,6.8,2.8,6.9,7l-3,0c-0.1-2.8-1.6-4.1-3.8-4.1c-2.4,0-3.8,1.4-3.8,3.5c0,5.4,11,5.3,11,13.2c0,3.7-2.5,7-7.2,7
		C78.4,77.5,75.6,74.7,75.5,70.2"/>
	<path class="st0" d="M112.3,51.4l0,25.6l-3,0l0-11.7c0-2.8,0.1-5.3,0.3-7.8l-0.1,0c-0.7,1.9-1.6,4.3-2.6,6.7l-2.7,6.9l-3,0
		l-2.7-6.9c-0.9-2.4-1.9-4.8-2.5-6.7l-0.2,0c0.1,2.5,0.3,5,0.3,7.8l0,11.7l-3,0l0-25.6l3.1,0l4.4,10.7c0.6,1.5,1.5,4.1,1.9,5.4h0.1
		c0.4-1.3,1.4-3.8,2-5.4l4.4-10.7L112.3,51.4z"/>
	<polygon class="st0" points="128.1,74.2 128.1,77 115.5,77 115.5,51.4 127.7,51.4 127.7,54.2 118.5,54.2 118.5,62.7 127.1,62.7 
		127.1,65.4 118.5,65.4 118.5,74.2 	"/>
	<path class="st0" d="M131.2,51.4l6.1,0c4.9,0,7.8,2.9,7.7,7.8l0,10.1c0,4.9-2.9,7.8-7.7,7.7l-6.1,0L131.2,51.4z M137.2,74.2
		c3,0,4.7-1.7,4.7-5l0-9.9c0-3.3-1.7-5-4.7-5l-3.1,0l0,19.9L137.2,74.2z"/>
	<polygon class="st0" points="160.6,54.3 155.1,54.3 155.1,77.1 152.1,77.1 152.1,54.3 146.6,54.3 146.6,51.5 160.6,51.5 	"/>
	<polygon class="st0" points="175.3,74.3 175.3,77.1 162.7,77.1 162.7,51.5 175,51.5 174.9,54.3 165.7,54.2 165.7,62.7 174.3,62.7 
		174.3,65.4 165.7,65.4 165.7,74.2 	"/>
	<path class="st0" d="M177.7,69.7l0-10.8c0-5,2.9-7.9,7.1-7.9c4.4,0,7.1,2.7,7.3,7.6l-3,0c-0.2-3.3-1.8-4.8-4.4-4.8
		c-2.4,0-4.1,1.6-4.1,5l0,10.8c0,3.4,1.7,5,4.2,5c2.7,0,4.2-1.6,4.5-4.8l3,0c-0.3,4.9-3,7.6-7.5,7.6
		C180.5,77.5,177.7,74.7,177.7,69.7"/>
	<polygon class="st0" points="209.2,51.5 209.2,77.1 206.2,77.1 206.2,65.5 198.1,65.5 198.1,77.1 195,77.1 195.1,51.5 198.1,51.5 
		198.1,62.7 206.2,62.7 206.2,51.5 	"/>
	<path class="st0" d="M55.5,48.3h0.9c1.6-5.9,4.2-11.4,7.7-16.5c3.4-5,7.6-9.4,12.4-13.1c4.8-3.7,10.2-6.6,16-8.6
		c5.9-2.1,12.2-3.1,18.5-3.1c10.8,0,21.2,3,30.3,8.8c0.4-0.1,0.8-0.2,1.2-0.2c-9.4-6.2-20.3-9.5-31.5-9.5c-6.5,0-12.8,1.1-18.9,3.2
		c-5.9,2-11.3,5-16.2,8.8c-4.9,3.8-9.1,8.3-12.5,13.4C59.7,36.6,57.1,42.3,55.5,48.3"/>
	<path class="st0" d="M61.5,80.7c1.8,5,4.3,9.8,7.5,14.1c3.2,4.3,7,8,11.3,11.1c9,6.5,19.6,9.9,30.6,9.9c11.1,0,21.7-3.4,30.6-9.9
		c4.3-3.1,8.1-6.9,11.3-11.1c3.2-4.3,5.7-9,7.5-14.1h-0.9c-1.8,4.9-4.2,9.6-7.4,13.8c-3.1,4.2-6.9,7.8-11.1,10.9
		c-8.8,6.3-19.2,9.7-30,9.7c-10.8,0-21.2-3.3-30-9.7c-4.2-3-8-6.7-11.1-10.9c-3.2-4.2-5.7-8.8-7.4-13.8H61.5z"/>
	<path class="st0" d="M160.1,48.3h0.9c-3-9.8-8.8-18.4-16.7-25c-0.3,0.1-0.6,0.3-0.9,0.3c3.9,3.2,7.3,6.9,10.1,11
		C156.4,38.8,158.6,43.4,160.1,48.3"/>
	<path class="st0" d="M67,80.7c1.7,4.3,4,8.4,6.9,12c2.9,3.6,6.3,6.8,10.1,9.5c7.9,5.5,17.2,8.4,26.9,8.4c9.7,0,18.9-2.9,26.9-8.4
		c3.8-2.7,7.2-5.8,10.1-9.5c2.9-3.7,5.2-7.7,6.9-12h-0.9c-1.7,4.2-4,8.2-6.9,11.7c-2.8,3.5-6.2,6.6-9.9,9.2
		c-7.7,5.3-16.8,8.2-26.2,8.2s-18.5-2.8-26.2-8.2c-3.7-2.6-7.1-5.7-9.9-9.2c-2.9-3.6-5.2-7.5-6.9-11.7H67z"/>
	<path class="st0" d="M149.1,48.3h0.9c-1.5-3.9-3.6-7.5-6.2-10.8c-2.6-3.3-5.6-6.1-9-8.5c-7.1-4.9-15.3-7.5-24-7.5
		c-8.6,0-16.9,2.6-24,7.5c-3.4,2.4-6.4,5.2-9,8.5c-2.6,3.3-4.7,6.9-6.2,10.8h0.9c3-7.5,8.2-14,14.9-18.6c6.9-4.8,15-7.3,23.3-7.3
		c8.4,0,16.4,2.5,23.3,7.3C140.9,34.3,146.1,40.7,149.1,48.3"/>
	<path class="st0" d="M78.1,80.7c3.1,5.9,7.7,10.8,13.4,14.3c5.8,3.6,12.5,5.5,19.4,5.5c6.9,0,13.6-1.9,19.4-5.5
		c5.6-3.5,10.3-8.4,13.4-14.3h-1c-6.4,11.7-18.5,19-31.8,19c-13.3,0-25.5-7.3-31.8-19H78.1z"/>
	<path class="st0" d="M83.6,80.7c2.9,4.5,6.8,8.3,11.5,10.9c4.8,2.7,10.3,4.2,15.8,4.2c5.5,0,11-1.4,15.8-4.2
		c4.6-2.6,8.6-6.4,11.5-10.9h-1c-5.8,8.9-15.7,14.2-26.3,14.2s-20.4-5.3-26.3-14.2H83.6z"/>
	<path class="st0" d="M133.1,48.3h1c-5.2-7.9-13.9-12.5-23.2-12.5c-9.4,0-18,4.7-23.2,12.5h1c5-7.3,13.3-11.7,22.2-11.7
		C119.8,36.6,128.1,41,133.1,48.3"/>
	<path class="st0" d="M60.8,48.3h0.9c1.9-6,4.8-11.5,8.7-16.5l-0.7-0.5C65.7,36.4,62.7,42.1,60.8,48.3"/>
	<path class="st0" d="M66.3,48.3h0.9c1.6-4.5,3.8-8.7,6.6-12.5c2.8-3.8,6.2-7.1,10-9.8c7.9-5.7,17.3-8.8,27.1-8.8
		c5.9,0,11.7,1.1,17.1,3.3l0.3-0.8c-5.6-2.2-11.4-3.4-17.5-3.4c-10,0-19.6,3.1-27.7,9c-3.9,2.8-7.3,6.2-10.2,10.1
		C70.1,39.4,67.9,43.7,66.3,48.3"/>
	<path class="st0" d="M143.7,48.3h0.9c-2.9-6.4-7.5-11.8-13.4-15.7c-6-4-13.1-6.1-20.3-6.1c-0.7,0-1.5,0-2.3,0.1l0,0.8
		c0.8-0.1,1.6-0.1,2.3-0.1c7,0,13.8,2,19.7,5.8C136.3,36.9,140.8,42.1,143.7,48.3"/>
	<path class="st0" d="M82.5,48.3h1c2.7-4.8,6.6-8.8,11.3-11.7c4.9-2.9,10.4-4.5,16.1-4.5c4.9,0,9.6,1.1,13.9,3.3l0.4-0.8
		c-4.5-2.2-9.3-3.4-14.3-3.4c-5.9,0-11.7,1.6-16.8,4.7C89.2,39,85.2,43.2,82.5,48.3"/>
	<path class="st0" d="M89.1,80.7c1.5,1.9,3.3,3.6,5.2,5.1l0.5-0.7c-1.7-1.3-3.3-2.8-4.6-4.4H89.1z"/>
	<path class="st0" d="M93.3,101.7c5.5,2.6,11.4,3.9,17.6,3.9c8.2,0,16.2-2.4,23.1-6.9c6.7-4.4,11.9-10.6,15.2-17.9h-0.9
		c-3.3,7-8.4,13-14.9,17.3c-6.7,4.4-14.5,6.7-22.5,6.7c-6,0-11.8-1.3-17.2-3.8L93.3,101.7z"/>
	<path class="st0" d="M56.1,80.7c1.8,5.8,4.5,11.2,8,16.1c3.5,4.9,7.7,9.2,12.5,12.8c4.9,3.6,10.2,6.5,15.9,8.4c5.9,2,12.1,3,18.4,3
		c4.8,0,9.6-0.6,14.3-1.8c4.5-1.2,8.9-2.9,13-5.1c8-4.3,15.1-10.6,20.3-18.2l-1.3,0c-5.1,7.5-11.5,13.1-19.4,17.4
		c-4,2.2-8.3,3.9-12.8,5c-4.6,1.2-9.3,1.8-14.1,1.8c-6.2,0-12.2-1-18.1-2.9c-5.6-1.9-10.9-4.7-15.7-8.2c-4.7-3.5-8.9-7.7-12.3-12.5
		c-3.5-4.8-6.1-10.1-8-15.8H56.1z"/>
	<path class="st0" d="M147.7,19.6c0,2.9-2.3,5.2-5.2,5.2c-2.9,0-5.2-2.3-5.2-5.2c0-2.9,2.3-5.2,5.2-5.2
		C145.4,14.4,147.7,16.7,147.7,19.6"/>
	<g>
		<path class="st0" d="M157.3,103.8V96h1.1v7h2.5v0.8H157.3z"/>
		<path class="st0" d="M162.8,103.8V96h1.1v7.8H162.8z"/>
		<path class="st0" d="M168.9,103.8h-1.2l-2-7.8h1.3l1.4,6.3l1.4-6.3h1.2L168.9,103.8z"/>
		<path class="st0" d="M172.6,103.8V96h1.1v7.8H172.6z"/>
		<path class="st0" d="M179.8,103.8l-2.4-5.4v5.4h-1.1V96h1.1l2.4,5.4l0-5.4h1.1v7.8H179.8z"/>
		<path class="st0" d="M185.4,103.9c-0.8,0-1.3-0.2-1.6-0.6c-0.6-0.6-0.7-1.5-0.7-3.4c0-2,0-2.8,0.7-3.4c0.4-0.3,0.9-0.6,1.6-0.6
			c0.7,0,1.2,0.2,1.5,0.5c0.4,0.4,0.6,0.9,0.7,1.6h-1.1c0-0.5-0.2-1.2-1-1.2c-0.4,0-0.6,0.1-0.8,0.3c-0.3,0.4-0.4,1-0.4,2.9
			c0,1.9,0.1,2.5,0.4,2.9c0.2,0.2,0.4,0.3,0.8,0.3c0.7,0,1-0.5,1-1.1v-1.6h-1v-0.8h2.2v2.3C187.6,103.2,186.6,103.9,185.4,103.9z"/>
		<path class="st0" d="M193.1,103.8V96h1.1v7h2.5v0.8H193.1z"/>
		<path class="st0" d="M202.1,103.8l-0.4-1.8h-2.2l-0.4,1.8h-1.2l2.2-7.8h1.1l2.2,7.8H202.1z M200.6,97.5l-0.9,3.6h1.8L200.6,97.5z"
			/>
		<path class="st0" d="M208.8,103.3c-0.4,0.3-0.9,0.5-1.7,0.5h-2V96h2c0.8,0,1.3,0.1,1.7,0.5c0.4,0.4,0.5,0.8,0.5,1.6
			c0,0.5-0.1,1-0.5,1.4c-0.2,0.1-0.3,0.2-0.5,0.3c0.2,0.1,0.4,0.2,0.6,0.3c0.5,0.4,0.5,1,0.5,1.5C209.4,102.5,209.2,103,208.8,103.3
			z M207,96.8h-0.8v2.5h0.8c0.8,0,1.2-0.4,1.2-1.3C208.2,97.1,207.8,96.8,207,96.8z M207,100.1h-0.8v2.8h0.8c0.9,0,1.3-0.3,1.3-1.4
			C208.3,100.5,207.8,100.1,207,100.1z"/>
	</g>
</g>
</svg>
