<?xml version="1.0" encoding="utf-8"?>
<!-- Generator: Adobe Illustrator 26.0.1, SVG Export Plug-In . SVG Version: 6.00 Build 0)  -->
<svg version="1.1" id="LOGO" xmlns="http://www.w3.org/2000/svg" xmlns:xlink="http://www.w3.org/1999/xlink" x="0px" y="0px"
	 viewBox="0 0 837.3 273.2" style="enable-background:new 0 0 837.3 273.2;" xml:space="preserve">
<style type="text/css">
	.st0{fill:#FFFFFF;}
</style>
<g>
	<g>
		<g>
			<path class="st0" d="M223.7,264.6h-0.1h-3.2v4.7h-4.3v-16.7h7.5c4.4,0,7,2.1,7,5.8c0,2.6-1.1,4.4-3,5.4l3.5,5.5h-4.8L223.7,264.6
				z M223.5,261.2c1.8,0,2.9-0.9,2.9-2.7c0-1.7-1.1-2.6-2.9-2.6h-3.2v5.3H223.5z"/>
			<path class="st0" d="M245.9,255.9v3.3h8v3.3h-8v3.4h9.1v3.3h-13.4v-16.7h13.1v3.3H245.9z M249.3,251.1h-3.2l2.5-4l3.7,1.3
				L249.3,251.1z"/>
			<path class="st0" d="M269.8,266.2l-1.2,3.1h-4.4l7.2-16.7h4.4l7,16.7h-4.5l-1.2-3.1H269.8z M273.5,256.8L271,263h4.8L273.5,256.8
				z"/>
			<path class="st0" d="M299.9,252.5c5.3,0,8.9,3.4,8.9,8.4c0,4.9-3.7,8.4-9.1,8.4h-7v-16.7H299.9z M296.9,265.9h3
				c2.6,0,4.5-2,4.5-4.9c0-3-2-5-4.7-5h-2.8V265.9z"/>
			<path class="st0" d="M322.6,266.2l-1.2,3.1H317l7.2-16.7h4.4l7,16.7h-4.5l-1.2-3.1H322.6z M326.3,256.8l-2.4,6.2h4.8L326.3,256.8
				z"/>
			<path class="st0" d="M352.8,252.5c4.3,0,6.7,2.1,6.7,5.8c0,3.9-2.5,6.2-6.7,6.2h-3v4.7h-4.3v-16.7H352.8z M349.7,261.2h2.8
				c1.9,0,2.9-0.9,2.9-2.7c0-1.7-1.1-2.6-2.9-2.6h-2.8V261.2z"/>
			<path class="st0" d="M377.7,256v13.3h-4.3V256h-5v-3.4h14.3v3.4H377.7z"/>
			<path class="st0" d="M394.9,266.2l-1.2,3.1h-4.4l7.2-16.7h4.4l7,16.7h-4.5l-1.2-3.1H394.9z M398.5,256.8l-2.4,6.2h4.8
				L398.5,256.8z"/>
			<path class="st0" d="M423.7,256v13.3h-4.3V256h-5v-3.4h14.3v3.4H423.7z"/>
			<path class="st0" d="M438.8,269.3v-16.7h4.3v16.7H438.8z"/>
			<path class="st0" d="M471.7,260.9c0,4.9-3.9,8.6-9.1,8.6c-5.2,0-9-3.7-9-8.6c0-4.9,3.9-8.5,9-8.5
				C467.8,252.4,471.7,256,471.7,260.9z M457.9,260.9c0,2.8,2.2,5,4.7,5c2.6,0,4.6-2.2,4.6-5c0-2.8-2.1-4.9-4.6-4.9
				C460.1,256,457.9,258.1,457.9,260.9z"/>
			<path class="st0" d="M493.9,269.3l-7.7-10.3v10.3h-4v-16.7h3.8l7.7,10.3v-10.3h4v16.7H493.9z"/>
			<path class="st0" d="M530.3,252.5c4.3,0,6.7,2.1,6.7,5.8c0,3.9-2.5,6.2-6.7,6.2h-3v4.7H523v-16.7H530.3z M527.3,261.2h2.8
				c1.9,0,2.9-0.9,2.9-2.7c0-1.7-1.1-2.6-2.9-2.6h-2.8V261.2z"/>
			<path class="st0" d="M551.8,255.9v3.3h8v3.3h-8v3.4h9.1v3.3h-13.4v-16.7h13.1v3.3H551.8z M555.2,251.1h-3.2l2.5-4l3.7,1.3
				L555.2,251.1z"/>
			<path class="st0" d="M579.1,252.5c5.3,0,8.9,3.4,8.9,8.4c0,4.9-3.7,8.4-9.1,8.4h-7v-16.7H579.1z M576.2,265.9h3
				c2.6,0,4.5-2,4.5-4.9c0-3-2-5-4.7-5h-2.8V265.9z"/>
			<path class="st0" d="M598.5,269.3v-16.7h4.3v16.7H598.5z"/>
			<path class="st0" d="M618.2,266.2l-1.2,3.1h-4.4l7.2-16.7h4.4l7,16.7h-4.5l-1.2-3.1H618.2z M621.9,256.8l-2.4,6.2h4.8
				L621.9,256.8z"/>
			<path class="st0" d="M647,256v13.3h-4.3V256h-5v-3.4H652v3.4H647z"/>
			<path class="st0" d="M669.7,264.6h-0.1h-3.2v4.7h-4.3v-16.7h7.5c4.4,0,7,2.1,7,5.8c0,2.6-1.1,4.4-3,5.4l3.5,5.5h-4.8L669.7,264.6
				z M669.6,261.2c1.8,0,2.9-0.9,2.9-2.7c0-1.7-1.1-2.6-2.9-2.6h-3.2v5.3H669.6z"/>
			<path class="st0" d="M687.7,269.3v-16.7h4.3v16.7H687.7z"/>
			<path class="st0" d="M721.4,271.4c-1.3,1.1-3.2,1.8-4.9,1.8c-2.3,0-4.3-1.4-5.4-3.8c-5-0.2-8.7-3.8-8.7-8.6c0-4.9,3.9-8.5,9-8.5
				c5.2,0,9.1,3.6,9.1,8.5c0,3.7-2.2,6.7-5.6,8c0.6,0.7,1.3,1.1,2,1.1s1.8-0.5,2.9-1.3L721.4,271.4z M711.5,265.9
				c2.6,0,4.6-2.2,4.6-5c0-2.8-2.1-4.9-4.6-4.9c-2.6,0-4.7,2.1-4.7,4.9C706.8,263.7,709,265.9,711.5,265.9z"/>
			<path class="st0" d="M746.2,262.2c0,4.4-2.9,7.2-7.6,7.2c-4.7,0-7.7-2.8-7.7-7.2v-9.7h4.3v9.7c0,2.3,1.5,3.7,3.5,3.7
				c2,0,3.4-1.4,3.4-3.7v-9.7h4.2V262.2z"/>
			<path class="st0" d="M761.8,255.9v3.3h8v3.3h-8v3.4h9.1v3.3h-13.4v-16.7h13.1v3.3H761.8z"/>
		</g>
		<g>
			<path class="st0" d="M533.7,145.1c-20,0-36.2,16.2-36.2,36.2s16.2,36.2,36.2,36.2s36.2-16.2,36.2-36.2S553.7,145.1,533.7,145.1z
				 M533.7,196.3c-8.3,0-15-6.7-15-15c0-8.3,6.7-15,15-15s15,6.7,15,15C548.7,189.6,542,196.3,533.7,196.3z"/>
			<path class="st0" d="M328.4,188.2c-2.5,4.8-7.5,8-13.3,8c-8.3,0-15-6.7-15-15c0-8.3,6.7-15,15-15c5.9,0,11.1,3.5,13.5,8.5
				l15.3-15.3c-6.6-8.7-17.1-14.3-28.8-14.3c-20,0-36.2,16.2-36.2,36.2s16.2,36.2,36.2,36.2c11.6,0,21.9-5.5,28.5-14L328.4,188.2z"
				/>
			<g>
				<path class="st0" d="M702.8,155.8l-25.7-25.7l-25.3,25.7c-6.7,6.6-10.8,15.4-10.8,25.5c0,20,16.2,36.2,36.2,36.2
					s36.2-16.2,36.2-36.2C713.3,171.4,709.3,162.4,702.8,155.8z M677.2,196.3c-8.3,0-15-6.7-15-15c0-8.3,6.7-15,15-15s15,6.7,15,15
					C692.1,189.6,685.4,196.3,677.2,196.3z"/>
			</g>
			<path class="st0" d="M189.2,164.5v51.5h-23.1v-51.5h-19.8v-18.2h62.8v18.2H189.2z"/>
			<path class="st0" d="M239.1,163.8v8.6h32.6v17.5h-32.6v8.7H276v17.5h-59.9v-69.8h59v17.5H239.1z"/>
			<path class="st0" d="M393.4,216.1v-25.2h-21.6v25.2h-23.1v-69.8h23.1v27.1h21.6v-27.1h23.1v69.8H393.4z"/>
			<path class="st0" d="M472.6,216.1l-27.5-35.6v35.6h-21v-69.8h19.3l27.6,35.8v-35.8h20.9v69.8H472.6z"/>
			<path class="st0" d="M608.2,146.3c18.1,0,28.6,9.1,28.6,25c0,16.9-10.4,26.7-28.6,26.7h-9.7v18.1h-23.1v-69.8H608.2z
				 M598.5,180.4h8.5c5,0,7.9-3.1,7.9-8.5c0-5.2-2.9-8.2-7.9-8.2h-8.5V180.4z"/>
			<path class="st0" d="M770.9,196.8v19.2h-52.1v-69.8h23.1v50.5H770.9z"/>
			<path class="st0" d="M800.5,163.8v8.6h32.6v17.5h-32.6v8.7h36.8v17.5h-59.9v-69.8h59v17.5H800.5z"/>
		</g>
		<g>
			<path class="st0" d="M77.6,146.3c-0.2,12.4-10.3,22.4-22.7,22.4c-12.5,0-22.6-10-22.7-22.4H0c0.2,30.2,24.7,54.6,54.9,54.6
				c30.2,0,54.7-24.4,54.9-54.6H77.6z"/>
			<path class="st0" d="M32.1,269.3c0.2-12.4,10.3-22.4,22.7-22.4c12.5,0,22.6,10,22.7,22.4h32.1c-0.2-30.2-24.7-54.6-54.9-54.6
				c-30.2,0-54.7,24.4-54.9,54.6H32.1z"/>
			<path class="st0" d="M15.9,93.6l39,39l38.5-39c10.1-10,16.4-23.3,16.4-38.7C109.8,24.6,85.2,0,54.9,0S0,24.6,0,54.9
				C0,70,6.1,83.6,15.9,93.6z M54.9,32.1c12.6,0,22.8,10.2,22.8,22.8c0,12.6-10.2,22.8-22.8,22.8S32.1,67.5,32.1,54.9
				C32.1,42.3,42.3,32.1,54.9,32.1z"/>
		</g>
	</g>
</g>
</svg>
