<svg xmlns="http://www.w3.org/2000/svg" width="283" height="98" viewBox="0 0 283 98">
  <g id="Groupe_464" data-name="Groupe 464" transform="translate(-96 -481)">
    <rect id="Rectangle_15" data-name="Rectangle 15" width="283" height="98" transform="translate(96 481)" fill="none"/>
    <g id="Groupe_49" data-name="Groupe 49" transform="translate(99.95 488.242)">
      <g id="Groupe_32" data-name="Groupe 32" transform="translate(0 0)">
        <path id="Tracé_8" data-name="Tracé 8" d="M220.573,197.731l6.994-6.994a10.077,10.077,0,0,0,0-14.235h0a10.026,10.026,0,0,0-6.707-2.934,10.064,10.064,0,0,0-16.116-2.612l-5.473,5.473-5.473-5.473a10.06,10.06,0,0,0-16.116,2.612,10.061,10.061,0,0,0-6.707,17.169l6.994,6.994-6.994,6.994a10.064,10.064,0,0,0,6.7,17.174,10.068,10.068,0,0,0,16.119,2.607l5.473-5.473,5.473,5.473a10.06,10.06,0,0,0,16.114-2.607,10.064,10.064,0,0,0,6.71-17.174Zm6.114-20.349h0a8.832,8.832,0,0,1,0,12.475l-6.994,6.994-6.186-6.186,5.473-5.473a10.077,10.077,0,0,0,2.416-10.337A8.777,8.777,0,0,1,226.686,177.382Zm-6.633,43.273a8.758,8.758,0,0,1-5.842-2.574l-10.171-10.171a6.746,6.746,0,0,0-9.541,0l-10.171,10.171a8.757,8.757,0,0,1-5.846,2.574,8.833,8.833,0,0,1,1.959-9.5L186.8,204.8l-7.067-7.067,7.067-7.067-6.353-6.353a8.833,8.833,0,0,1-1.957-9.5,8.787,8.787,0,0,1,5.843,2.57l10.329,10.33a6.53,6.53,0,0,0,9.224,0l10.33-10.33a8.786,8.786,0,0,1,5.843-2.57,8.833,8.833,0,0,1-1.957,9.5l-6.353,6.353,7.067,7.067-7.067,7.067,6.353,6.353A8.834,8.834,0,0,1,220.054,220.654Zm-20.783-3.382-6.186-6.186,2.3-2.3a5.5,5.5,0,0,1,7.78,0l2.3,2.3Zm-18.828-45.436a8.821,8.821,0,0,1,12.474,0l6.353,6.353,6.353-6.353a8.823,8.823,0,0,1,13.843,1.769,10.02,10.02,0,0,0-6.136,2.9L203,186.831a5.283,5.283,0,0,1-7.463,0L185.21,176.5a10.02,10.02,0,0,0-6.136-2.9A8.806,8.806,0,0,1,180.443,171.837Zm-8.588,18.02a8.814,8.814,0,0,1,5.291-15,10.077,10.077,0,0,0,2.416,10.337l5.473,5.473-6.186,6.186Zm0,28.224a8.821,8.821,0,0,1,0-12.475l6.994-6.994,6.186,6.186-5.473,5.473a10.078,10.078,0,0,0-2.42,10.342A8.754,8.754,0,0,1,171.855,218.081Zm21.063,5.545a8.821,8.821,0,0,1-12.475,0,8.881,8.881,0,0,1-1.368-1.764,9.991,9.991,0,0,0,6.135-2.9l6.994-6.994,6.186,6.186Zm25.181,0a8.821,8.821,0,0,1-12.474,0l-5.473-5.473,6.186-6.186,6.994,6.994a9.99,9.99,0,0,0,6.133,2.9A8.8,8.8,0,0,1,218.1,223.626Zm8.588-5.545a8.752,8.752,0,0,1-5.293,2.532,10.076,10.076,0,0,0-2.415-10.342l-5.473-5.473,6.186-6.186,6.994,6.994h0A8.832,8.832,0,0,1,226.686,218.081Z" transform="translate(-168.026 -168.008)" fill="#00998a"/>
        <path id="Tracé_9" data-name="Tracé 9" d="M247.489,228.68l-12.54-12.539,12.54-12.539a10.115,10.115,0,0,0,2.053-11.272l-.165-.365h-.4a10.039,10.039,0,0,0-7.135,2.949l-7.88,7.88a6.265,6.265,0,1,0-12.361,0l-7.878-7.878a10,10,0,0,0-7.115-2.949h-.421l-.165.365a10.071,10.071,0,0,0,2.053,11.272l12.539,12.539L208.073,228.68a10.115,10.115,0,0,0-2.053,11.272l.182.366h.4a10.008,10.008,0,0,0,7.118-2.946l10.17-10.173a5.507,5.507,0,0,1,7.779,0l10.171,10.173a10,10,0,0,0,7.115,2.946h.42l.166-.365a10.073,10.073,0,0,0-2.053-11.272Zm-19.711-31.924a5.019,5.019,0,0,1,2.849,9.154,4.963,4.963,0,0,1-1.7.753c-.047.012-.093.021-.14.031-.081.016-.162.028-.256.043a4.84,4.84,0,0,1-1.512,0c-.076-.01-.151-.025-.229-.04s-.13-.026-.2-.04a5.02,5.02,0,0,1,1.186-9.9Zm20.789,42.308a8.759,8.759,0,0,1-5.846-2.573l-10.17-10.173a6.753,6.753,0,0,0-9.54,0l-10.17,10.172a8.77,8.77,0,0,1-5.846,2.573,8.867,8.867,0,0,1,1.959-9.5l13.42-13.42-13.42-13.42a8.829,8.829,0,0,1-1.959-9.5,8.754,8.754,0,0,1,5.846,2.576l10.333,10.333a6.5,6.5,0,0,0,3.15,1.744c.078.017.157.034.234.048.1.019.2.037.277.047a5.894,5.894,0,0,0,.945.074,5.987,5.987,0,0,0,.953-.074c.1-.015.2-.03.31-.053.062-.013.125-.026.171-.038h.006l.009,0a6.5,6.5,0,0,0,3.165-1.749l10.329-10.329a8.754,8.754,0,0,1,5.846-2.576,8.867,8.867,0,0,1-1.958,9.5l-13.42,13.42,13.42,13.42a8.829,8.829,0,0,1,1.959,9.5Z" transform="translate(-196.536 -186.418)" fill="#ffc54c"/>
      </g>
      <g id="Groupe_46" data-name="Groupe 46" transform="translate(75.021 0.114)">
        <g id="Groupe_37" data-name="Groupe 37" transform="translate(0)">
          <g id="Groupe_33" data-name="Groupe 33">
            <path id="Tracé_10" data-name="Tracé 10" d="M497.183,192.856c0,.584.02.987.04,1.209a1.179,1.179,0,0,0,.342.665,1.241,1.241,0,0,0,1.007.3c1.188,0,1.773.765,1.773,2.316a2.17,2.17,0,0,1-2.437,2.478,5.9,5.9,0,0,1-4.311-1.491,5.654,5.654,0,0,1-1.491-4.291V171.06a2.538,2.538,0,1,1,5.076,0v21.8Z" transform="translate(-492.106 -168.502)" fill="#fff"/>
          </g>
          <g id="Groupe_34" data-name="Groupe 34" transform="translate(10.981 10.857)">
            <path id="Tracé_11" data-name="Tracé 11" d="M560.473,232.507c0,2.095-.846,3.142-2.558,3.122a3.835,3.835,0,0,1-1.753-.322,1.567,1.567,0,0,1-.785-1.229,8.359,8.359,0,0,1-5.439,1.813,10.257,10.257,0,0,1-7.373-3.022,10.213,10.213,0,0,1,0-14.5,10.2,10.2,0,0,1,7.373-2.961,8.436,8.436,0,0,1,5.439,1.813,2.294,2.294,0,0,1,2.518-1.732c1.712,0,2.558,1.007,2.558,3.042v13.96ZM549.938,231a5.35,5.35,0,0,0,3.807-1.591,5.133,5.133,0,0,0,1.612-3.787,5.4,5.4,0,0,0-10.8.02,5.127,5.127,0,0,0,1.571,3.767A5.294,5.294,0,0,0,549.958,231Z" transform="translate(-539.544 -215.405)" fill="#fff"/>
          </g>
          <g id="Groupe_35" data-name="Groupe 35" transform="translate(36.881)">
            <path id="Tracé_12" data-name="Tracé 12" d="M661.922,179.339a10.2,10.2,0,0,1,7.413,2.961,10.189,10.189,0,0,1-.02,14.5,10.27,10.27,0,0,1-7.393,3.022,8.193,8.193,0,0,1-5.378-1.813,2.242,2.242,0,0,1-.907,1.209,3.427,3.427,0,0,1-1.692.343c-1.672,0-2.518-1.047-2.518-3.122V171.1a2.539,2.539,0,1,1,5.076,0v10.072a8.287,8.287,0,0,1,5.4-1.813Zm.02,4.835a5.312,5.312,0,0,0-3.807,1.551,5.082,5.082,0,0,0-1.611,3.807,5.419,5.419,0,1,0,9.246-3.747,5.21,5.21,0,0,0-3.807-1.611Z" transform="translate(-651.427 -168.502)" fill="#fff"/>
          </g>
          <g id="Groupe_36" data-name="Groupe 36" transform="translate(61.493 10.857)">
            <path id="Tracé_13" data-name="Tracé 13" d="M768.184,215.4a10.042,10.042,0,0,1,7.373,2.961,10.119,10.119,0,0,1,0,14.5,10.632,10.632,0,0,1-14.766,0,10.189,10.189,0,0,1-.02-14.5,10.215,10.215,0,0,1,7.393-2.961Zm-5.459,10.233a5.07,5.07,0,0,0,1.591,3.767,5.471,5.471,0,0,0,7.715,0,5.133,5.133,0,0,0,1.612-3.787,5.468,5.468,0,0,0-5.479-5.4,5.468,5.468,0,0,0-5.419,5.419Z" transform="translate(-757.749 -215.404)" fill="#fff"/>
          </g>
        </g>
        <g id="Groupe_45" data-name="Groupe 45" transform="translate(0 43.67)">
          <g id="Groupe_38" data-name="Groupe 38" transform="translate(0 0.328)">
            <path id="Tracé_14" data-name="Tracé 14" d="M495.486,397.462c-2.245,0-3.38-1.16-3.38-3.506V362.022c0-2.3,1.135-3.456,3.38-3.456s3.38,1.16,3.38,3.456v31.934C498.866,396.3,497.731,397.462,495.486,397.462Z" transform="translate(-492.106 -358.566)" fill="#fff"/>
          </g>
          <g id="Groupe_39" data-name="Groupe 39" transform="translate(15.057 0.278)">
            <path id="Tracé_15" data-name="Tracé 15" d="M590.722,396.21a5.153,5.153,0,0,1-3.405,1.085,4.082,4.082,0,0,1-3.405-1.791l-20-27.646v25.931c0,2.346-1.135,3.506-3.38,3.506s-3.38-1.16-3.38-3.506V363.67a4.859,4.859,0,0,1,1.614-4.011,6.35,6.35,0,0,1,4.137-1.312,4.806,4.806,0,0,1,4.061,2.169L585.4,385.893V361.8q0-3.405,3.329-3.405t3.33,3.405v31A4.176,4.176,0,0,1,590.722,396.21Z" transform="translate(-557.149 -358.348)" fill="#fff"/>
          </g>
          <g id="Groupe_40" data-name="Groupe 40" transform="translate(57.287)">
            <path id="Tracé_16" data-name="Tracé 16" d="M740.463,387.57a2.936,2.936,0,0,1,3.632-.58,11.713,11.713,0,0,1,1.892,1.539,9.34,9.34,0,0,0,5.751,1.967,6.418,6.418,0,0,0,4.641-1.539,5.042,5.042,0,0,0,1.513-3.708,4,4,0,0,0-2.195-3.531,14.262,14.262,0,0,0-2.094-1.16c-.58-.252-1.463-.631-2.648-1.11-3.683-1.539-6.054-2.8-7.088-3.809a9.687,9.687,0,0,1-2.8-4.011,14.214,14.214,0,0,1-.53-3.481,10.1,10.1,0,0,1,3.456-8.021,12.572,12.572,0,0,1,8.551-2.976,14.873,14.873,0,0,1,8.324,2.119,2.576,2.576,0,0,1,1.387,2.321,3.517,3.517,0,0,1-.908,2.472,2.653,2.653,0,0,1-1.942.984,7.562,7.562,0,0,1-3.027-.984,11.171,11.171,0,0,0-4.061-.706,5.685,5.685,0,0,0-3.607,1.085,3.247,3.247,0,0,0-1.438,2.649,5.232,5.232,0,0,0,.5,2.472,5.333,5.333,0,0,0,1.816,1.791,22.425,22.425,0,0,0,3.935,1.866c1.715.656,2.926,1.135,3.607,1.413a17.25,17.25,0,0,1,2.724,1.488,10.073,10.073,0,0,1,2.523,2.144,11.671,11.671,0,0,1,1.589,2.876,10.155,10.155,0,0,1,.681,4.011,10.927,10.927,0,0,1-3.355,8.4c-2.245,2.094-5.423,3.153-9.56,3.153a14.844,14.844,0,0,1-10.443-3.885,4.724,4.724,0,0,1-1.715-3A3.23,3.23,0,0,1,740.463,387.57Z" transform="translate(-739.58 -357.149)" fill="#fff"/>
          </g>
          <g id="Groupe_41" data-name="Groupe 41" transform="translate(90.234 0.631)">
            <path id="Tracé_17" data-name="Tracé 17" d="M888.666,394.961c0,2.346-1.135,3.506-3.38,3.506s-3.38-1.16-3.38-3.506v-30.9a4.271,4.271,0,0,1,1.034-3.229,4.532,4.532,0,0,1,3.153-.958h9.283c4.339,0,7.618,1.185,9.837,3.582a13.074,13.074,0,0,1,3.355,9.156,12.726,12.726,0,0,1-3.33,9.157c-2.245,2.4-5.524,3.582-9.837,3.582h-6.71v9.61Zm11.6-17.859a6.365,6.365,0,0,0,1.589-4.465,6.473,6.473,0,0,0-1.589-4.49,6.09,6.09,0,0,0-4.868-1.74h-6.71v12.436h6.71A6.338,6.338,0,0,0,900.269,377.1Z" transform="translate(-881.906 -359.874)" fill="#fff"/>
          </g>
          <g id="Groupe_42" data-name="Groupe 42" transform="translate(124.768 0.328)">
            <path id="Tracé_18" data-name="Tracé 18" d="M1034.47,397.462c-2.245,0-3.38-1.16-3.38-3.506V362.022c0-2.3,1.135-3.456,3.38-3.456s3.38,1.16,3.38,3.456v31.934C1037.85,396.3,1036.715,397.462,1034.47,397.462Z" transform="translate(-1031.09 -358.566)" fill="#fff"/>
          </g>
          <g id="Groupe_43" data-name="Groupe 43" transform="translate(140.074 0.631)">
            <path id="Tracé_19" data-name="Tracé 19" d="M1123.342,395.566a2.561,2.561,0,0,1-1.236,1.968,4.314,4.314,0,0,1-2.674.933,2.913,2.913,0,0,1-2.447-1.791l-8.425-14.479h-4.591v12.764c0,2.346-1.135,3.506-3.38,3.506s-3.38-1.16-3.38-3.506v-30.9a4.272,4.272,0,0,1,1.034-3.229,4.532,4.532,0,0,1,3.153-.958h11.3c3.809,0,6.76,1.009,8.854,3.052a10.436,10.436,0,0,1,3.153,7.794,11.627,11.627,0,0,1-2.3,7.567,10.268,10.268,0,0,1-6.533,3.557l6.71,11.527a4.428,4.428,0,0,1,.732,2.22Zm-6.785-21.037a4.253,4.253,0,0,0,1.387-3.405,4.4,4.4,0,0,0-1.387-3.456,5.482,5.482,0,0,0-3.784-1.261h-8.828v9.333h8.828A5.587,5.587,0,0,0,1116.557,374.529Z" transform="translate(-1097.21 -359.874)" fill="#fff"/>
          </g>
          <g id="Groupe_44" data-name="Groupe 44" transform="translate(175.441 0.631)">
            <path id="Tracé_20" data-name="Tracé 20" d="M1274.557,394.86c0,2.169-1.11,3.254-3.3,3.254h-17.379A3.894,3.894,0,0,1,1251,397.08a3.992,3.992,0,0,1-1.009-2.951V363.657a3.7,3.7,0,0,1,1.009-2.8,3.976,3.976,0,0,1,2.876-.984h17.379c2.195,0,3.3,1.11,3.3,3.329,0,2.144-1.11,3.2-3.3,3.2h-14.479v8.5h10.7c2.27,0,3.405,1.085,3.405,3.229s-1.135,3.229-3.405,3.229h-10.7v10.241h14.479C1273.447,391.606,1274.557,392.691,1274.557,394.86Z" transform="translate(-1249.988 -359.874)" fill="#fff"/>
          </g>
        </g>
      </g>
      <g id="Groupe_47" data-name="Groupe 47" transform="translate(174.568 12.216)">
        <path id="Tracé_21" data-name="Tracé 21" d="M922.684,226.95h.012a.438.438,0,0,0,.318-.107.458.458,0,0,0,.115-.333l0,0v-5.283a.4.4,0,0,0-.448-.444.39.39,0,0,0-.424.448V226.5C922.26,226.8,922.4,226.95,922.684,226.95Z" transform="translate(-922.232 -220.779)" fill="#fff"/>
        <path id="Tracé_22" data-name="Tracé 22" d="M933.11,233.634v-1.622c0-.809.316-1.2.967-1.2.624,0,.928.378.928,1.154v1.661a.376.376,0,0,0,.416.432.416.416,0,0,0,.308-.106.439.439,0,0,0,.1-.327l0-.017V231.8a1.8,1.8,0,0,0-.443-1.321,1.576,1.576,0,0,0-1.146-.447,1.507,1.507,0,0,0-1.126.46v-.059a.329.329,0,0,0-.114-.281.468.468,0,0,0-.3-.1.369.369,0,0,0-.408.424v3.16a.409.409,0,1,0,.816,0Z" transform="translate(-929.943 -227.892)" fill="#fff"/>
        <path id="Tracé_23" data-name="Tracé 23" d="M954.15,233.634v-1.622c0-.809.316-1.2.967-1.2.624,0,.927.378.927,1.154v1.661a.376.376,0,0,0,.416.432.416.416,0,0,0,.308-.106.441.441,0,0,0,.1-.327l0-.017V231.8a1.8,1.8,0,0,0-.443-1.321,1.576,1.576,0,0,0-1.146-.447,1.507,1.507,0,0,0-1.126.46v-.059a.329.329,0,0,0-.114-.281.468.468,0,0,0-.3-.1.369.369,0,0,0-.408.424v3.16a.409.409,0,1,0,.817,0Z" transform="translate(-946.112 -227.892)" fill="#fff"/>
        <path id="Tracé_24" data-name="Tracé 24" d="M976.622,233.516a1.947,1.947,0,0,0,.61-1.436,1.97,1.97,0,0,0-.61-1.444,2.052,2.052,0,0,0-3.506,1.444,1.956,1.956,0,0,0,.6,1.436,2.072,2.072,0,0,0,2.9,0Zm-2.333-2.326a1.161,1.161,0,0,1,.877-.38,1.264,1.264,0,0,1,1.245,1.259,1.275,1.275,0,0,1-.361.9,1.16,1.16,0,0,1-.877.38,1.264,1.264,0,0,1-1.249-1.261A1.246,1.246,0,0,1,974.289,231.19Z" transform="translate(-961.315 -227.892)" fill="#fff"/>
        <path id="Tracé_25" data-name="Tracé 25" d="M995.878,233.718l1.259-3.075a.474.474,0,0,0,.042-.223.3.3,0,0,0-.138-.254.528.528,0,0,0-.346-.116c-.137,0-.245.095-.319.282l-1.076,2.636-1.048-2.636c-.079-.187-.188-.282-.323-.282a.539.539,0,0,0-.341.111.368.368,0,0,0-.1.471l1.268,3.085h0a.568.568,0,0,0,.566.345A.555.555,0,0,0,995.878,233.718Z" transform="translate(-976.939 -227.905)" fill="#fff"/>
        <path id="Tracé_26" data-name="Tracé 26" d="M1015.507,233.636a.362.362,0,0,0,.109.288.419.419,0,0,0,.3.109.372.372,0,0,0,.416-.424v-.081l0,.008v-3.079a.412.412,0,1,0-.824-.008v.1a1.734,1.734,0,0,0-1.309-.531,2,2,0,0,0-1.432.586,1.972,1.972,0,0,0-.6,1.452,1.949,1.949,0,0,0,.594,1.444,2,2,0,0,0,1.444.586,1.688,1.688,0,0,0,1.3-.53Zm-1.277-.3a1.2,1.2,0,0,1-.893-.368,1.258,1.258,0,0,1-.36-.905,1.209,1.209,0,0,1,.365-.9,1.2,1.2,0,0,1,.893-.368h.016a1.168,1.168,0,0,1,.876.372,1.26,1.26,0,0,1,.36.89l0,0v.008a1.243,1.243,0,0,1-.36.893A1.2,1.2,0,0,1,1014.23,233.332Z" transform="translate(-991.324 -227.879)" fill="#fff"/>
        <path id="Tracé_27" data-name="Tracé 27" d="M1036.12,226.52a.356.356,0,0,0,.4-.4.351.351,0,0,0-.4-.384h-.7V224.8a.374.374,0,0,0-.417-.428.379.379,0,0,0-.42.428v.939h-.264c-.268,0-.4.129-.4.385a.357.357,0,0,0,.4.4l.008.008h.271v1.917a1.82,1.82,0,0,0,.206.9.984.984,0,0,0,.918.4h.02a1.256,1.256,0,0,0,.5-.073.269.269,0,0,0,.166-.263.772.772,0,0,0-.029-.261c-.047-.115-.184-.171-.419-.171-.219,0-.359-.045-.426-.139a.882.882,0,0,1-.1-.494V226.52Z" transform="translate(-1008.034 -223.537)" fill="#fff"/>
        <path id="Tracé_28" data-name="Tracé 28" d="M1049.634,230.1a.372.372,0,0,0-.416.424v3.152a.376.376,0,0,0,.416.432.383.383,0,0,0,.424-.432v-3.152A.379.379,0,0,0,1049.634,230.1Z" transform="translate(-1019.801 -227.945)" fill="#fff"/>
        <path id="Tracé_29" data-name="Tracé 29" d="M1049.22,223.62l.019,0h0a.51.51,0,0,0,.365-.161.563.563,0,0,0,.152-.394.521.521,0,0,0-.152-.382.5.5,0,0,0-.383-.165.545.545,0,0,0-.391.156.526.526,0,0,0-.161.4.548.548,0,0,0,.551.555Z" transform="translate(-1019.379 -222.112)" fill="#fff"/>
        <path id="Tracé_30" data-name="Tracé 30" d="M1059.606,234.11a2.009,2.009,0,0,0,1.452-.594,1.947,1.947,0,0,0,.61-1.436,1.97,1.97,0,0,0-.61-1.444,2.052,2.052,0,0,0-3.506,1.444,1.955,1.955,0,0,0,.6,1.436A2.008,2.008,0,0,0,1059.606,234.11Zm.881-1.144a1.16,1.16,0,0,1-.877.38,1.264,1.264,0,0,1-1.249-1.261,1.246,1.246,0,0,1,.365-.894,1.16,1.16,0,0,1,.877-.38,1.264,1.264,0,0,1,1.245,1.259A1.274,1.274,0,0,1,1060.487,232.965Z" transform="translate(-1026.205 -227.892)" fill="#fff"/>
        <path id="Tracé_31" data-name="Tracé 31" d="M1083.639,233.609V231.8a1.8,1.8,0,0,0-.443-1.321,1.577,1.577,0,0,0-1.146-.447,1.508,1.508,0,0,0-1.126.46v-.059a.328.328,0,0,0-.114-.281.469.469,0,0,0-.3-.1.369.369,0,0,0-.408.424v3.16a.409.409,0,1,0,.817,0v-1.622c0-.809.316-1.2.967-1.2.624,0,.927.378.927,1.154v1.661a.376.376,0,0,0,.416.432.415.415,0,0,0,.308-.106.441.441,0,0,0,.1-.327Z" transform="translate(-1043.537 -227.892)" fill="#fff"/>
        <path id="Tracé_32" data-name="Tracé 32" d="M1102.431,233.757a1.016,1.016,0,0,0,.388-.825,1.145,1.145,0,0,0-.267-.783,1.175,1.175,0,0,0-.3-.223,2.441,2.441,0,0,0-.324-.144c-.086-.033-.234-.078-.431-.135a2.163,2.163,0,0,1-.488-.2.325.325,0,0,1-.178-.283.363.363,0,0,1,.132-.3.622.622,0,0,1,.405-.115,1.5,1.5,0,0,1,.514.1,1.145,1.145,0,0,0,.353.1.343.343,0,0,0,.228-.113.4.4,0,0,0,.125-.28.361.361,0,0,0-.179-.293A1.736,1.736,0,0,0,1101.4,230a1.434,1.434,0,0,0-1.014.343,1.191,1.191,0,0,0-.372.908.887.887,0,0,0,.426.819,1.937,1.937,0,0,0,.374.18c.122.041.276.09.446.144.194.055.33.1.405.119a.685.685,0,0,1,.236.143.345.345,0,0,1,.125.276.334.334,0,0,1-.163.287.946.946,0,0,1-.526.116,1.641,1.641,0,0,1-.79-.24.353.353,0,0,0-.455.063.407.407,0,0,0-.117.3v.01l.012.008a.312.312,0,0,0,.172.276,2.211,2.211,0,0,0,1.2.329A1.635,1.635,0,0,0,1102.431,233.757Z" transform="translate(-1058.806 -227.865)" fill="#fff"/>
        <path id="Tracé_33" data-name="Tracé 33" d="M1129,230a1.9,1.9,0,0,0-1.432.6,2.035,2.035,0,0,0-.569,1.448,1.976,1.976,0,0,0,.6,1.444,1.921,1.921,0,0,0,1.388.59H1129a2.085,2.085,0,0,0,1.371-.477.483.483,0,0,0,.207-.321.331.331,0,0,0-.11-.247.341.341,0,0,0-.514-.049,1.35,1.35,0,0,1-.894.345,1.234,1.234,0,0,1-.83-.294,1.248,1.248,0,0,1-.415-.719l2.946,0a.215.215,0,0,0,.156-.069.313.313,0,0,0,.077-.216,2.008,2.008,0,0,0-.569-1.436A1.892,1.892,0,0,0,1129,230Zm0,.753a1.162,1.162,0,0,1,.767.27,1.044,1.044,0,0,1,.383.647h-2.315a1.285,1.285,0,0,1,.413-.659,1.122,1.122,0,0,1,.733-.262v0Z" transform="translate(-1079.574 -227.865)" fill="#fff"/>
        <path id="Tracé_34" data-name="Tracé 34" d="M1151.623,231.965v1.661a.376.376,0,0,0,.416.432.416.416,0,0,0,.308-.106.44.44,0,0,0,.1-.327l0-.017V231.8a1.8,1.8,0,0,0-.443-1.321,1.575,1.575,0,0,0-1.146-.447,1.507,1.507,0,0,0-1.126.46v-.059a.328.328,0,0,0-.114-.281.467.467,0,0,0-.3-.1.369.369,0,0,0-.408.424v3.16a.408.408,0,1,0,.816,0v-1.622c0-.809.316-1.2.967-1.2C1151.32,230.811,1151.623,231.188,1151.623,231.965Z" transform="translate(-1096.417 -227.892)" fill="#fff"/>
        <path id="Tracé_35" data-name="Tracé 35" d="M924.387,272.64a.483.483,0,0,0-.317-.1,1.5,1.5,0,0,0-1.115.493v-.085a.358.358,0,0,0-.408-.4.369.369,0,0,0-.408.424v3.16a.409.409,0,1,0,.816,0v-1.645a1.13,1.13,0,0,1,.28-.845,1.412,1.412,0,0,1,.883-.317.447.447,0,0,0,.29-.116.379.379,0,0,0,.113-.288A.34.34,0,0,0,924.387,272.64Z" transform="translate(-922.139 -260.561)" fill="#fff"/>
        <path id="Tracé_36" data-name="Tracé 36" d="M939.408,264.613a.342.342,0,0,0-.216.291.464.464,0,0,0,.108.3.292.292,0,0,0,.225.126.562.562,0,0,0,.251-.058l1.173-.62a.358.358,0,0,0,.228-.315.525.525,0,0,0-.124-.322.331.331,0,0,0-.241-.138h-.045l.006.006a.576.576,0,0,0-.213.072Z" transform="translate(-935.244 -253.899)" fill="#fff"/>
        <path id="Tracé_37" data-name="Tracé 37" d="M936.455,272.477a1.9,1.9,0,0,0-1.432.6,2.034,2.034,0,0,0-.57,1.448,1.975,1.975,0,0,0,.6,1.444,1.92,1.92,0,0,0,1.388.59h.023l0,0a2.084,2.084,0,0,0,1.364-.477.478.478,0,0,0,.21-.322.321.321,0,0,0-.113-.242.346.346,0,0,0-.514-.052,1.35,1.35,0,0,1-.894.345,1.233,1.233,0,0,1-.83-.294,1.251,1.251,0,0,1-.415-.719h2.947a.217.217,0,0,0,.16-.069.292.292,0,0,0,.069-.216,2.006,2.006,0,0,0-.569-1.436A1.89,1.89,0,0,0,936.455,272.477Zm.008.753a1.161,1.161,0,0,1,.767.27,1.042,1.042,0,0,1,.384.647H935.3a1.239,1.239,0,0,1,.413-.659,1.12,1.12,0,0,1,.732-.262v0Z" transform="translate(-931.602 -260.51)" fill="#fff"/>
        <path id="Tracé_38" data-name="Tracé 38" d="M959.445,272.935a.412.412,0,1,0-.824-.008v.1a1.734,1.734,0,0,0-1.309-.531,2,2,0,0,0-1.432.586,1.972,1.972,0,0,0-.6,1.452,1.949,1.949,0,0,0,.594,1.444,2,2,0,0,0,1.444.586,1.688,1.688,0,0,0,1.3-.53v.081a.362.362,0,0,0,.109.288.419.419,0,0,0,.3.109.372.372,0,0,0,.416-.424v-.081l0,.008Zm-2.1,2.875a1.2,1.2,0,0,1-.893-.368,1.258,1.258,0,0,1-.36-.905,1.21,1.21,0,0,1,.364-.9,1.2,1.2,0,0,1,.893-.368h.016a1.167,1.167,0,0,1,.877.372,1.261,1.261,0,0,1,.36.89l0,0v.008a1.244,1.244,0,0,1-.36.893A1.2,1.2,0,0,1,957.348,275.81Z" transform="translate(-947.61 -260.523)" fill="#fff"/>
        <path id="Tracé_39" data-name="Tracé 39" d="M982.241,263.66a.412.412,0,1,0-.824,0v2.254a1.734,1.734,0,0,0-1.309-.532,2,2,0,0,0-1.432.586,1.973,1.973,0,0,0-.6,1.452,1.949,1.949,0,0,0,.594,1.444,2,2,0,0,0,1.444.586,1.687,1.687,0,0,0,1.3-.53v.081a.362.362,0,0,0,.109.288.419.419,0,0,0,.3.109.372.372,0,0,0,.416-.424v-.046l0,0Zm-2.1,5.037a1.2,1.2,0,0,1-.893-.368,1.258,1.258,0,0,1-.36-.905,1.209,1.209,0,0,1,.365-.9,1.2,1.2,0,0,1,.893-.368h.016a1.167,1.167,0,0,1,.877.372,1.261,1.261,0,0,1,.36.89l0,0v.008a1.244,1.244,0,0,1-.36.893A1.2,1.2,0,0,1,980.144,268.7Z" transform="translate(-965.129 -253.411)" fill="#fff"/>
        <path id="Tracé_40" data-name="Tracé 40" d="M1005.038,272.935a.412.412,0,1,0-.824-.008v.1a1.734,1.734,0,0,0-1.309-.531,2,2,0,0,0-1.432.586,1.972,1.972,0,0,0-.6,1.452,1.949,1.949,0,0,0,.594,1.444,2,2,0,0,0,1.444.586,1.688,1.688,0,0,0,1.305-.53v.081a.362.362,0,0,0,.109.288.419.419,0,0,0,.3.109.372.372,0,0,0,.416-.424v-.081l0,.008Zm-2.1,2.875a1.2,1.2,0,0,1-.893-.368,1.258,1.258,0,0,1-.36-.905,1.209,1.209,0,0,1,.364-.9,1.2,1.2,0,0,1,.893-.368h.016a1.167,1.167,0,0,1,.877.372,1.262,1.262,0,0,1,.36.89l0,0v.008a1.244,1.244,0,0,1-.36.893A1.2,1.2,0,0,1,1002.941,275.81Z" transform="translate(-982.649 -260.523)" fill="#fff"/>
        <path id="Tracé_41" data-name="Tracé 41" d="M1027,272.529a1.734,1.734,0,0,0-1.309.531v-.1a.408.408,0,1,0-.817.008v5.219a.409.409,0,1,0,.817,0V276.07a1.7,1.7,0,0,0,1.3.53,2,2,0,0,0,1.44-.586,2.048,2.048,0,0,0,0-2.9A2.014,2.014,0,0,0,1027,272.529Zm-.921,1.153a1.212,1.212,0,0,1,.889-.376h.044l0,0a1.21,1.21,0,0,1,.847.375,1.292,1.292,0,0,1,0,1.794,1.2,1.2,0,0,1-.893.368,1.18,1.18,0,0,1-.889-.372,1.3,1.3,0,0,1,.008-1.787Z" transform="translate(-1001.093 -260.549)" fill="#fff"/>
        <path id="Tracé_42" data-name="Tracé 42" d="M1047.212,268.213h-.7v-.939a.374.374,0,0,0-.417-.428.379.379,0,0,0-.42.428v.939h-.263c-.268,0-.4.129-.4.385a.357.357,0,0,0,.4.4l.008.008h.271v1.917a1.822,1.822,0,0,0,.205.9.984.984,0,0,0,.918.4h.02a1.251,1.251,0,0,0,.5-.073.269.269,0,0,0,.166-.263.8.8,0,0,0-.029-.262c-.047-.115-.184-.171-.419-.171-.219,0-.358-.046-.426-.139a.883.883,0,0,1-.1-.494V269h.7a.356.356,0,0,0,.4-.4A.351.351,0,0,0,1047.212,268.213Z" transform="translate(-1016.561 -256.182)" fill="#fff"/>
        <path id="Tracé_43" data-name="Tracé 43" d="M1062.85,272.935a.412.412,0,1,0-.824-.008v.1a1.734,1.734,0,0,0-1.309-.531,2,2,0,0,0-1.432.586,1.972,1.972,0,0,0-.6,1.452,1.949,1.949,0,0,0,.594,1.444,2,2,0,0,0,1.444.586,1.688,1.688,0,0,0,1.305-.53v.081a.362.362,0,0,0,.109.288.419.419,0,0,0,.3.109.373.373,0,0,0,.416-.424v-.081l0,.008Zm-2.1,2.875a1.2,1.2,0,0,1-.893-.368,1.258,1.258,0,0,1-.36-.905,1.209,1.209,0,0,1,.364-.9,1.2,1.2,0,0,1,.893-.368h.016a1.167,1.167,0,0,1,.877.372,1.262,1.262,0,0,1,.36.89l0,0v.008a1.243,1.243,0,0,1-.36.893A1.2,1.2,0,0,1,1060.753,275.81Z" transform="translate(-1027.078 -260.523)" fill="#fff"/>
        <path id="Tracé_44" data-name="Tracé 44" d="M1082.64,268.213h-.7v-.939a.374.374,0,0,0-.417-.428.379.379,0,0,0-.42.428v.939h-.264c-.268,0-.4.129-.4.385a.357.357,0,0,0,.4.4l.008.008h.271v1.917a1.823,1.823,0,0,0,.205.9.984.984,0,0,0,.918.4h.02a1.252,1.252,0,0,0,.5-.073.269.269,0,0,0,.166-.263.794.794,0,0,0-.029-.262c-.047-.115-.184-.171-.419-.171-.219,0-.358-.046-.426-.139a.881.881,0,0,1-.1-.494V269h.7a.356.356,0,0,0,.4-.4A.351.351,0,0,0,1082.64,268.213Z" transform="translate(-1043.788 -256.182)" fill="#fff"/>
        <path id="Tracé_45" data-name="Tracé 45" d="M1096.158,272.581a.372.372,0,0,0-.416.424v3.152a.376.376,0,0,0,.416.432.383.383,0,0,0,.424-.432V273A.379.379,0,0,0,1096.158,272.581Z" transform="translate(-1055.555 -260.589)" fill="#fff"/>
        <path id="Tracé_46" data-name="Tracé 46" d="M1095.743,264.991a.546.546,0,0,0-.391.156.526.526,0,0,0-.161.4.549.549,0,0,0,.551.555l.019,0h0a.51.51,0,0,0,.365-.161.562.562,0,0,0,.152-.394.52.52,0,0,0-.152-.382A.5.5,0,0,0,1095.743,264.991Z" transform="translate(-1055.132 -254.756)" fill="#fff"/>
        <path id="Tracé_47" data-name="Tracé 47" d="M1106.126,272.511a2.048,2.048,0,0,0-2.05,2.046,1.955,1.955,0,0,0,.6,1.436,2.073,2.073,0,0,0,2.9,0,1.948,1.948,0,0,0,.61-1.436,1.969,1.969,0,0,0-.61-1.444A2,2,0,0,0,1106.126,272.511Zm-.877,1.157a1.161,1.161,0,0,1,.877-.38,1.264,1.264,0,0,1,1.245,1.259,1.276,1.276,0,0,1-.36.9,1.161,1.161,0,0,1-.877.38,1.264,1.264,0,0,1-1.249-1.261A1.246,1.246,0,0,1,1105.249,273.668Z" transform="translate(-1061.96 -260.536)" fill="#fff"/>
        <path id="Tracé_48" data-name="Tracé 48" d="M1130.162,274.279a1.8,1.8,0,0,0-.443-1.321,1.579,1.579,0,0,0-1.146-.447,1.507,1.507,0,0,0-1.126.461v-.06a.33.33,0,0,0-.114-.281.47.47,0,0,0-.3-.1.369.369,0,0,0-.408.424v3.16a.409.409,0,1,0,.817,0V274.49c0-.809.316-1.2.967-1.2.624,0,.927.378.927,1.154V276.1a.376.376,0,0,0,.416.432.415.415,0,0,0,.308-.106.44.44,0,0,0,.1-.327l0-.017Z" transform="translate(-1079.29 -260.536)" fill="#fff"/>
        <path id="Tracé_49" data-name="Tracé 49" d="M1161.028,272.529a1.734,1.734,0,0,0-1.309.531v-.1a.365.365,0,0,0-.408-.416.369.369,0,0,0-.408.424v5.219a.409.409,0,1,0,.817,0V276.07a1.7,1.7,0,0,0,1.305.53,2,2,0,0,0,1.44-.586,2.048,2.048,0,0,0,0-2.9A2.014,2.014,0,0,0,1161.028,272.529Zm-.921,1.153a1.213,1.213,0,0,1,.889-.376h.044l0,0a1.211,1.211,0,0,1,.847.375,1.292,1.292,0,0,1,0,1.794,1.2,1.2,0,0,1-.893.368,1.181,1.181,0,0,1-.889-.372,1.3,1.3,0,0,1,.008-1.787Z" transform="translate(-1104.095 -260.549)" fill="#fff"/>
        <path id="Tracé_50" data-name="Tracé 50" d="M1182.5,272.477a1.9,1.9,0,0,0-1.432.6,2.034,2.034,0,0,0-.57,1.448,1.976,1.976,0,0,0,.6,1.444,1.921,1.921,0,0,0,1.389.59h.023l0,0a2.084,2.084,0,0,0,1.364-.477.478.478,0,0,0,.21-.322.321.321,0,0,0-.114-.242.345.345,0,0,0-.514-.052,1.35,1.35,0,0,1-.894.345,1.233,1.233,0,0,1-.83-.294,1.251,1.251,0,0,1-.415-.719h2.947a.217.217,0,0,0,.16-.069.292.292,0,0,0,.069-.216,2.006,2.006,0,0,0-.569-1.436A1.89,1.89,0,0,0,1182.5,272.477Zm.008.753a1.161,1.161,0,0,1,.767.27,1.042,1.042,0,0,1,.384.647h-2.315a1.241,1.241,0,0,1,.413-.659,1.12,1.12,0,0,1,.733-.262v0Z" transform="translate(-1120.692 -260.51)" fill="#fff"/>
        <path id="Tracé_51" data-name="Tracé 51" d="M1185.571,265.328a.561.561,0,0,0,.251-.058l1.173-.62a.358.358,0,0,0,.228-.315.524.524,0,0,0-.124-.322.331.331,0,0,0-.241-.138h-.045l.006.006a.577.577,0,0,0-.213.072l-1.152.66a.341.341,0,0,0-.216.291.464.464,0,0,0,.108.3A.291.291,0,0,0,1185.571,265.328Z" transform="translate(-1124.334 -253.899)" fill="#fff"/>
        <path id="Tracé_52" data-name="Tracé 52" d="M1205.491,263.66a.412.412,0,1,0-.824,0v2.254a1.734,1.734,0,0,0-1.309-.532,2,2,0,0,0-1.432.586,1.973,1.973,0,0,0-.6,1.452,1.949,1.949,0,0,0,.594,1.444,2,2,0,0,0,1.444.586,1.687,1.687,0,0,0,1.3-.53v.081a.362.362,0,0,0,.109.288.419.419,0,0,0,.3.109.373.373,0,0,0,.416-.424v-.046l0,0Zm-2.1,5.037a1.2,1.2,0,0,1-.893-.368,1.258,1.258,0,0,1-.36-.905,1.209,1.209,0,0,1,.364-.9,1.2,1.2,0,0,1,.893-.368h.016a1.167,1.167,0,0,1,.877.372,1.26,1.26,0,0,1,.36.89l0,0v.008a1.244,1.244,0,0,1-.361.893A1.2,1.2,0,0,1,1203.394,268.7Z" transform="translate(-1136.699 -253.411)" fill="#fff"/>
        <path id="Tracé_53" data-name="Tracé 53" d="M1225.3,264.991a.545.545,0,0,0-.391.156.526.526,0,0,0-.161.4.548.548,0,0,0,.551.555l.019,0h0a.51.51,0,0,0,.365-.161.562.562,0,0,0,.152-.394.521.521,0,0,0-.152-.382A.5.5,0,0,0,1225.3,264.991Z" transform="translate(-1154.701 -254.756)" fill="#fff"/>
        <path id="Tracé_54" data-name="Tracé 54" d="M1225.717,272.581a.372.372,0,0,0-.416.424v3.152a.376.376,0,0,0,.416.432.383.383,0,0,0,.424-.432V273A.379.379,0,0,0,1225.717,272.581Z" transform="translate(-1155.123 -260.589)" fill="#fff"/>
        <path id="Tracé_55" data-name="Tracé 55" d="M1237.815,272.935a.412.412,0,1,0-.824-.008v.1a1.734,1.734,0,0,0-1.309-.531,2,2,0,0,0-1.432.586,1.972,1.972,0,0,0-.6,1.452,1.948,1.948,0,0,0,.594,1.444,2,2,0,0,0,1.444.586,1.688,1.688,0,0,0,1.3-.53v.081a.361.361,0,0,0,.109.288.419.419,0,0,0,.3.109.372.372,0,0,0,.416-.424v-.081l0,.008Zm-2.1,2.875a1.2,1.2,0,0,1-.893-.368,1.257,1.257,0,0,1-.36-.905,1.25,1.25,0,0,1,1.257-1.265h.016a1.168,1.168,0,0,1,.877.372,1.261,1.261,0,0,1,.36.89l0,0v.008a1.244,1.244,0,0,1-.36.893A1.2,1.2,0,0,1,1235.718,275.81Z" transform="translate(-1161.54 -260.523)" fill="#fff"/>
        <path id="Tracé_56" data-name="Tracé 56" d="M1257.6,268.213h-.7v-.939a.374.374,0,0,0-.417-.428.379.379,0,0,0-.42.428v.939h-.264c-.268,0-.4.129-.4.385a.357.357,0,0,0,.4.4l.008.008h.271v1.917a1.819,1.819,0,0,0,.205.9.984.984,0,0,0,.918.4h.02a1.252,1.252,0,0,0,.5-.073.269.269,0,0,0,.166-.263.779.779,0,0,0-.029-.262c-.047-.115-.184-.171-.419-.171-.219,0-.359-.046-.426-.139a.882.882,0,0,1-.1-.494V269h.705a.356.356,0,0,0,.4-.4A.351.351,0,0,0,1257.6,268.213Z" transform="translate(-1178.251 -256.182)" fill="#fff"/>
        <path id="Tracé_57" data-name="Tracé 57" d="M1272.971,272.64a.483.483,0,0,0-.317-.1,1.5,1.5,0,0,0-1.115.493v-.085a.358.358,0,0,0-.408-.4.369.369,0,0,0-.408.424v3.16a.409.409,0,1,0,.816,0v-1.645a1.129,1.129,0,0,1,.28-.845,1.412,1.412,0,0,1,.883-.317.448.448,0,0,0,.29-.116.379.379,0,0,0,.113-.288A.34.34,0,0,0,1272.971,272.64Z" transform="translate(-1190.03 -260.561)" fill="#fff"/>
        <path id="Tracé_58" data-name="Tracé 58" d="M1285.206,272.581a.372.372,0,0,0-.416.424v3.152a.376.376,0,0,0,.416.432.383.383,0,0,0,.424-.432V273A.379.379,0,0,0,1285.206,272.581Z" transform="translate(-1200.841 -260.589)" fill="#fff"/>
        <path id="Tracé_59" data-name="Tracé 59" d="M1284.792,264.991a.546.546,0,0,0-.39.156.526.526,0,0,0-.161.4.548.548,0,0,0,.551.555l.019,0h0a.51.51,0,0,0,.365-.161.562.562,0,0,0,.152-.394.52.52,0,0,0-.152-.382A.5.5,0,0,0,1284.792,264.991Z" transform="translate(-1200.419 -254.756)" fill="#fff"/>
        <path id="Tracé_60" data-name="Tracé 60" d="M1297.3,272.935a.371.371,0,0,0-.412-.424.367.367,0,0,0-.412.416v.1a1.734,1.734,0,0,0-1.309-.531,2,2,0,0,0-1.432.586,1.972,1.972,0,0,0-.6,1.452,1.949,1.949,0,0,0,.594,1.444,2,2,0,0,0,1.444.586,1.688,1.688,0,0,0,1.305-.53v2.117a.412.412,0,1,0,.824,0V278.1l0,0Zm-2.1,2.875a1.2,1.2,0,0,1-.893-.368,1.257,1.257,0,0,1-.36-.905,1.209,1.209,0,0,1,.364-.9,1.2,1.2,0,0,1,.893-.368h.016a1.166,1.166,0,0,1,.876.372,1.26,1.26,0,0,1,.36.89l0,0v.008a1.244,1.244,0,0,1-.36.893A1.2,1.2,0,0,1,1295.207,275.81Z" transform="translate(-1207.258 -260.523)" fill="#fff"/>
        <path id="Tracé_61" data-name="Tracé 61" d="M1320.085,272.581c-.268,0-.4.143-.4.424v1.717c0,.777-.314,1.154-.959,1.154s-.959-.377-.959-1.154v-1.717a.372.372,0,0,0-.416-.424.419.419,0,0,0-.31.105.43.43,0,0,0-.1.319v1.94a1.588,1.588,0,0,0,.492,1.282,2.228,2.228,0,0,0,2.576,0,1.588,1.588,0,0,0,.488-1.282v-1.94C1320.489,272.724,1320.353,272.581,1320.085,272.581Z" transform="translate(-1225.543 -260.589)" fill="#fff"/>
        <path id="Tracé_62" data-name="Tracé 62" d="M1340.324,273.075a2,2,0,0,0-2.857,0,2.035,2.035,0,0,0-.569,1.448,1.975,1.975,0,0,0,.6,1.444,1.921,1.921,0,0,0,1.389.59h.016a2.084,2.084,0,0,0,1.371-.477.482.482,0,0,0,.207-.321.331.331,0,0,0-.11-.247.342.342,0,0,0-.514-.049,1.351,1.351,0,0,1-.894.345,1.232,1.232,0,0,1-.83-.294,1.249,1.249,0,0,1-.415-.718l2.947,0a.217.217,0,0,0,.156-.069.313.313,0,0,0,.077-.216A2.007,2.007,0,0,0,1340.324,273.075Zm-1.421.155a1.162,1.162,0,0,1,.767.27,1.043,1.043,0,0,1,.383.647h-2.315a1.285,1.285,0,0,1,.413-.659,1.12,1.12,0,0,1,.732-.262v0Z" transform="translate(-1240.885 -260.51)" fill="#fff"/>
      </g>
      <g id="Groupe_48" data-name="Groupe 48" transform="translate(165.287 10.976)">
        <path id="Tracé_63" data-name="Tracé 63" d="M882.667,235.874a.623.623,0,0,1-.622-.622v-19.2a.623.623,0,0,1,1.245,0v19.2A.623.623,0,0,1,882.667,235.874Z" transform="translate(-882.045 -215.425)" fill="#fff"/>
      </g>
    </g>
  </g>
</svg>
