<?xml version="1.0" encoding="utf-8"?>
<!-- Generator: Adobe Illustrator 25.4.1, SVG Export Plug-In . SVG Version: 6.00 Build 0)  -->
<svg version="1.1" id="Layer_1" xmlns="http://www.w3.org/2000/svg" xmlns:xlink="http://www.w3.org/1999/xlink" x="0px" y="0px"
	 viewBox="0 0 250 102" style="enable-background:new 0 0 250 102;" xml:space="preserve">
<style type="text/css">
	.st0{fill:#FFFFFF;}
</style>
<g>
	<path class="st0" d="M208.7,49.3v13.5l0,0.5l-0.5,0h-6.5l-0.5,0l0-0.5V50.5c0-3.6-2.1-5.3-4.6-5.3c-2.5,0-4.6,1.7-4.6,5.3v12.3
		l0,0.5l-0.5,0h-6.5l-0.5,0l0-0.5V50.5c0-6.7,5.4-12.1,12.1-12.1c2.9,0,5.5,1,7.5,2.6l0.1,0.5l0.1-0.4c0.2-0.2,0.4-0.5,0.7-0.7
		l0.4-0.1l-0.4-0.2c-1.8-2-2.9-4.6-2.9-7.5V5.7l0-0.5l0.5,0h6.5l0.5,0l0,0.5v26.9c0,2.9,1.7,4.3,3.7,4.3c2.1,0,3.7-1.4,3.7-4.3V5.7
		l0-0.5l0.5,0h6.5l0.5,0l0,0.5v26.9c0,2.9-1.1,5.5-2.9,7.5l-0.4,0.2l0.5,0.1c0.2,0.2,0.4,0.4,0.7,0.7l0.1,0.4l0.1-0.5
		c2.1-1.6,4.7-2.6,7.5-2.6c6.7,0,12.1,5.4,12.1,12.1v12.3l0,0.5l-0.5,0h-6.5l-0.5,0l0-0.5V50.5c0-3.6-2.1-5.3-4.6-5.3
		c-2.6,0-4.6,1.7-4.6,5.3v12.3l0,0.5l-0.5,0h-6.5l-0.5,0l0-0.5V49.3c0-3.7-2.1-5.5-4.8-5.5C210.8,43.8,208.7,45.6,208.7,49.3"/>
	<path class="st0" d="M61.2,96.5h6.9v-0.7l-2.6-0.6V71.6h-7.1v0.8l2.8,0.8v7.9c-1.2-1-3-1.8-5.5-1.8c-4.3,0-7.5,3.8-7.5,9.1
		c0,5.4,2.9,8.5,7.5,8.5c2.3,0,4.1-0.9,5.4-2.1L61.2,96.5 M61.2,93.3c-1,0.8-2.1,1.4-3.9,1.4c-2.4,0-4.4-1.7-4.4-6.4
		c0-4.8,1.7-7,4.4-7c1.8,0,3.1,0.7,4,1.6V93.3z"/>
	<polyline class="st0" points="126.3,71.6 126.3,72.3 123.7,73 123.7,95 126.3,95.7 126.3,96.5 115.5,96.5 115.5,95.7 119,95 
		119,77.5 110.9,96.5 109,96.5 101.1,77.4 101.1,95 104.4,95.6 104.4,96.5 96.6,96.5 96.6,95.7 98.8,95.1 98.8,73 96.6,72.3 
		96.6,71.6 103.6,71.6 111.3,90.6 119.3,71.6 126.3,71.6 	"/>
	<path class="st0" d="M137.2,79.3c-4.9,0-9.3,3.4-9.3,8.8c0,5.2,4.4,8.8,9.3,8.8c4.9,0,9.3-3.6,9.3-8.8
		C146.5,82.7,142.1,79.3,137.2,79.3 M137.2,80.5c3,0,4.5,3.3,4.5,7.5c0,4.2-1.6,7.6-4.5,7.6c-2.9,0-4.6-3.4-4.6-7.6
		S134.2,80.5,137.2,80.5z"/>
	<path class="st0" d="M227.2,84.5v2.9l-3.9,0.2c-3.7,0.1-6.1,2.1-6.1,4.9c0,2.8,2.1,4.4,4.9,4.4c2.3,0,3.9-1.1,5-1.9v1.5h6.3v-0.7
		l-2.1-0.6V83.7c0-2.5-1.6-4.5-5.3-4.5c-3.8,0-6.2,1.1-7.5,1.7v3.9h1.9l0.6-3.3c0.4-0.2,1.6-0.6,3.5-0.4
		C226.9,81.3,227.2,82.9,227.2,84.5 M227.2,93.7c-0.9,0.6-1.6,1.2-3,1.2c-2.2,0-2.8-1.3-2.8-3c0-1.6,1.1-2.8,3.1-3.1l2.7-0.3
		L227.2,93.7L227.2,93.7z"/>
	<polyline class="st0" points="245,95.7 245,96.5 235.5,96.5 235.5,95.7 238.1,95.1 238.1,73 235.5,72.4 235.5,71.6 242.5,71.6 
		242.5,95.1 245,95.7 	"/>
	<path class="st0" d="M25.8,39.9l-3.7-0.7v-0.8h8.6v0.8l-2.6,0.8V55c0,6.3-3.4,8.8-10.4,8.8c-7.2,0-10.1-2.8-10.1-8.4V39.8L5,39.1
		v-0.8h11v0.8l-3.7,0.6v15.3c0,4.6,1.6,6.9,6.4,6.9c5.2,0,7.1-2.4,7.1-7.3V39.9"/>
	<path class="st0" d="M40.6,62.5v0.7h-9.3v-0.7l2.5-0.6V47.7L31.5,47v-0.8h6.7v2.6c0.8-0.6,3.2-2.8,6.3-2.8c3.2,0,4.9,1.8,4.9,4.9
		v10.9l2.4,0.6v0.8h-9v-0.8l2.3-0.6V51.5c0-1.7-0.5-3.1-2.6-3.1c-1.8,0-3.7,1.3-4.2,1.6v11.9L40.6,62.5"/>
	<polyline class="st0" points="60.2,61.9 62.7,62.5 62.7,63.3 53.3,63.3 53.3,62.5 55.9,61.9 55.9,47.7 53.6,47 53.6,46.3 
		60.2,46.3 60.2,61.9 	"/>
	<path class="st0" d="M60.4,40.4c0,1.3-1.1,2.4-2.5,2.4c-1.3,0-2.5-1.1-2.5-2.4c0-1.3,1.2-2.4,2.5-2.4C59.3,38,60.4,39.1,60.4,40.4"
		/>
	<polyline class="st0" points="135.3,61.9 137.9,62.5 137.9,63.3 128.4,63.3 128.4,62.5 131,61.9 131,47.7 128.7,47 128.7,46.3 
		135.3,46.3 135.3,61.9 	"/>
	<path class="st0" d="M135.6,40.4c0,1.3-1.1,2.4-2.5,2.4c-1.3,0-2.5-1.1-2.5-2.4c0-1.3,1.2-2.4,2.5-2.4
		C134.4,38,135.6,39.1,135.6,40.4"/>
	<polyline class="st0" points="64.1,47.4 62.9,46.9 62.9,46.3 71.2,46.3 71.2,46.9 68.5,47.6 72.3,58 76.1,47.5 73.8,46.9 
		73.8,46.3 79.4,46.3 79.4,46.9 78.1,47.6 71.6,63.5 70.2,63.5 64.1,47.4 	"/>
	<path class="st0" d="M84.5,53.7h11.2c-0.1-4.7-2.6-7.6-7.5-7.6c-4.9,0-8.5,4.2-8.5,8.8c0,5.3,3.5,8.8,8.5,8.8
		c4.3,0,6.5-1.7,7.8-2.6l-0.7-1.1c-1,0.6-3,2-6.3,1.8C85.8,61.4,84.1,58,84.5,53.7 M91.4,52.4h-6.8c0.4-2.9,1.5-5.1,3.6-5.1
		C90.5,47.3,91.3,50,91.4,52.4z"/>
	<path class="st0" d="M125,46.9l-0.4,4.2H123l-0.4-2.8c-0.6-0.3-1.3-1-3-1c-1.4,0-2.5,0.7-2.5,2.2c0,1.8,1.9,2.5,3.9,3.3
		c1.9,0.8,4.9,2,4.9,5c0,3.4-2.8,5.8-6.2,5.8c-3.1,0-5-0.7-5.5-0.9l-0.3-4.6l1.6-0.2l0.9,3.1c0.5,0.3,1.7,1.3,3.3,1.3
		c2.2,0,3.2-1.1,3.2-2.8c0-2-2.7-2.8-4.5-3.6c-1.7-0.8-4.3-1.5-4.3-5c0-2.9,2.4-4.9,5.6-4.9C122.5,46.1,124.2,46.7,125,46.9"/>
	<polyline class="st0" points="166.8,40.6 165.2,38.2 159.3,42.8 160.3,44.2 166.8,40.6 	"/>
	<path class="st0" d="M156.7,53.7h11.2c-0.1-4.7-2.6-7.6-7.5-7.6c-4.9,0-8.4,4.2-8.4,8.8c0,5.3,3.5,8.8,8.5,8.8
		c4.3,0,6.5-1.7,7.8-2.6l-0.7-1.1c-1,0.6-3,2-6.3,1.8C158,61.4,156.3,58,156.7,53.7 M163.6,52.4h-6.8c0.4-2.9,1.5-5.1,3.5-5.1
		C162.7,47.3,163.5,50,163.6,52.4z"/>
	<path class="st0" d="M110.1,46.1c-2.4,0-4.2,2-5.2,4.2h-0.1v-4h-6.9V47l2.6,0.7v14.2l-2.6,0.6v0.7h10.6v-0.8l-3.7-0.6v-9.7
		c1-2.2,2.5-3.1,3.5-3.1c0.7,0,1,0.1,1.5,0.6c0.2,0.2,0.9,0.4,1.4,0.2c0.8-0.3,1.1-1,1.1-1.9C112.2,47,111.3,46.1,110.1,46.1"/>
	<path class="st0" d="M157.5,95.7v0.7h-9.3v-0.7l2.5-0.6V80.9l-2.3-0.7v-0.8h6.7v2.6c0.8-0.7,3.2-2.8,6.3-2.8c3.2,0,4.9,1.8,4.9,4.9
		v10.9l2.4,0.6v0.8h-9v-0.8l2.3-0.6V84.7c0-1.6-0.5-3.1-2.6-3.1c-1.8,0-3.7,1.3-4.2,1.6v11.9L157.5,95.7"/>
	<path class="st0" d="M195.7,79.3c-2.5,0-4.2,2-5.2,4.2h-0.1v-4h-6.9v0.7l2.6,0.8v14.2l-2.6,0.6v0.7h10.6v-0.8l-3.7-0.6v-9.7
		c1-2.2,2.5-3.1,3.5-3.1c0.7,0,1,0.1,1.5,0.6c0.2,0.2,0.9,0.4,1.4,0.2c0.8-0.4,1.1-1,1.1-1.9C197.8,80.2,196.9,79.3,195.7,79.3"/>
	<path class="st0" d="M150.6,61.4c-0.6,0.4-1.3,0.7-2.3,0.7c-1.5,0-2-1.1-2-3.6V47.7l4.4-0.6v-0.8h-4.4v-7.9h-1.4
		c-0.3,4.5-1.9,7.5-5.9,7.9h-0.7v0.8l3.6,0.6v10.9c0,3.5,0.8,5,4.1,5c2.3,0,4.2-0.9,5-1.6L150.6,61.4"/>
	<path class="st0" d="M181.5,94.6c-0.6,0.4-1.3,0.7-2.3,0.7c-1.5,0-2-1.1-2-3.6V80.9l4.4-0.6v-0.8h-4.4v-7.9h-1.4
		c-0.3,4.5-1.9,7.5-5.9,7.9h-0.7v0.8l3.6,0.6v10.9c0,3.5,0.8,5,4.1,5c2.3,0,4.2-0.9,5-1.6L181.5,94.6"/>
	<path class="st0" d="M74.1,86.9h11.2c-0.1-4.7-2.6-7.7-7.5-7.7c-4.8,0-8.4,4.2-8.4,8.8c0,5.3,3.5,8.8,8.5,8.8
		c4.3,0,6.5-1.7,7.8-2.6L85,93.1c-1,0.6-3,2-6.3,1.8C75.4,94.6,73.8,91.2,74.1,86.9 M81.1,85.6h-6.8c0.4-2.9,1.5-5.1,3.6-5.1
		C80.2,80.5,80.9,83.2,81.1,85.6z"/>
	<path class="st0" d="M202.9,86.9h11.2c-0.1-4.7-2.6-7.7-7.5-7.7c-4.9,0-8.5,4.2-8.5,8.8c0,5.3,3.5,8.8,8.5,8.8
		c4.3,0,6.5-1.7,7.8-2.6l-0.7-1.1c-1,0.6-3,2-6.3,1.8C204.2,94.6,202.6,91.1,202.9,86.9 M213.1,73.8l-1.6-2.4l-5.9,4.6l1,1.4
		L213.1,73.8z M209.9,85.6h-6.8c0.4-2.9,1.5-5.1,3.6-5.1C209,80.5,209.8,83.2,209.9,85.6z"/>
</g>
</svg>
